<?xml version="1.0" encoding="UTF-8"?>
<!DOCTYPE svg PUBLIC "-//W3C//DTD SVG 1.1//EN" "http://www.w3.org/Graphics/SVG/1.1/DTD/svg11.dtd">
<svg xmlns="http://www.w3.org/2000/svg" version="1.1" width="500px" height="500px" style="shape-rendering:geometricPrecision; text-rendering:geometricPrecision; image-rendering:optimizeQuality; fill-rule:evenodd; clip-rule:evenodd" xmlns:xlink="http://www.w3.org/1999/xlink">
<g><path style="opacity:1" fill="#430182" d="M -0.5,-0.5 C 57.1667,-0.5 114.833,-0.5 172.5,-0.5C 84.0664,32.2351 26.3997,92.9017 -0.5,181.5C -0.5,120.833 -0.5,60.1667 -0.5,-0.5 Z"/></g>
<g><path style="opacity:1" fill="#4e0e86" d="M 172.5,-0.5 C 208.833,-0.5 245.167,-0.5 281.5,-0.5C 360.14,12.2203 421.473,53.7203 465.5,124C 465.167,124.333 464.833,124.667 464.5,125C 477.281,146.502 486.281,169.168 491.5,193C 492.794,199.815 494.46,206.482 496.5,213C 495.14,214.938 495.473,216.604 497.5,218C 497.582,223.622 497.582,229.288 497.5,235C 497.954,237.03 498.62,238.863 499.5,240.5C 499.5,248.167 499.5,255.833 499.5,263.5C 498.661,264.641 497.994,265.974 497.5,267.5C 495.603,310.327 482.436,351.327 458,390.5C 421.456,446.123 370.623,482.456 305.5,499.5C 268.167,499.5 230.833,499.5 193.5,499.5C 145.406,487.212 104.406,463.045 70.5,427C 69.552,426.517 68.552,426.351 67.5,426.5C 63.673,419.492 58.8397,413.159 53,407.5C 21.0153,363.246 3.84863,317.079 1.5,269C 1.1983,266.6 0.531631,264.434 -0.5,262.5C -0.5,235.5 -0.5,208.5 -0.5,181.5C 26.3997,92.9017 84.0664,32.2351 172.5,-0.5 Z"/></g>
<g><path style="opacity:1" fill="#470583" d="M 281.5,-0.5 C 307.833,-0.5 334.167,-0.5 360.5,-0.5C 424.733,29.7331 471.066,77.3998 499.5,142.5C 499.5,175.167 499.5,207.833 499.5,240.5C 498.62,238.863 497.954,237.03 497.5,235C 497.582,229.288 497.582,223.622 497.5,218C 495.473,216.604 495.14,214.938 496.5,213C 494.46,206.482 492.794,199.815 491.5,193C 486.281,169.168 477.281,146.502 464.5,125C 464.833,124.667 465.167,124.333 465.5,124C 421.473,53.7203 360.14,12.2203 281.5,-0.5 Z"/></g>
<g><path style="opacity:1" fill="#430081" d="M 360.5,-0.5 C 406.833,-0.5 453.167,-0.5 499.5,-0.5C 499.5,47.1667 499.5,94.8333 499.5,142.5C 471.066,77.3998 424.733,29.7331 360.5,-0.5 Z"/></g>
<g><path style="opacity:1" fill="#541588" d="M 227.5,5.5 C 332.914,1.21809 411.414,44.2181 463,134.5C 496.905,203.187 500.571,273.52 474,345.5C 441.651,420.829 385.818,469.662 306.5,492C 199.824,512.238 114.324,479.071 50,392.5C 2.27536,316.352 -5.39131,236.686 27,153.5C 54.6795,91.4875 99.8462,47.3208 162.5,21C 183.671,13.1224 205.337,7.95569 227.5,5.5 Z"/></g>
<g><path style="opacity:1" fill="#591b8a" d="M 225.5,10.5 C 313.514,5.70256 384.514,37.3692 438.5,105.5C 488.206,176.308 499.373,252.975 472,335.5C 436.359,424.682 371.026,477.015 276,492.5C 195.145,499.088 127.145,472.421 72,412.5C 12.4662,338.056 -2.20049,255.723 28,165.5C 37.4787,139.631 51.3121,116.297 69.5,95.5C 70.4287,94.3112 70.762,92.9778 70.5,91.5C 71.552,91.6495 72.552,91.4828 73.5,91C 113.633,45.269 164.3,18.4357 225.5,10.5 Z"/></g>
<g><path style="opacity:1" fill="#5f228c" d="M 228.5,14.5 C 314.523,10.4432 383.69,42.1099 436,109.5C 481.378,174.932 493.378,245.932 472,322.5C 446.555,398.278 396.388,450.111 321.5,478C 222.436,505.189 138.936,480.689 71,404.5C 26.3288,347.019 9.32878,282.685 20,211.5C 35.7974,130.349 80.6307,71.5153 154.5,35C 178.232,24.6889 202.899,17.8556 228.5,14.5 Z"/></g>
<g><path style="opacity:1" fill="#64288e" d="M 230.5,17.5 C 326.711,14.6724 399.545,54.0058 449,135.5C 490.512,215.368 489.512,294.701 446,373.5C 392.376,456.722 315.876,493.555 216.5,484C 135.349,468.8 76.849,424.3 41,350.5C 7.76477,270.755 13.7648,194.088 59,120.5C 100.543,60.466 157.709,26.1327 230.5,17.5 Z"/></g>
<g><path style="opacity:1" fill="#692e91" d="M 236.5,19.5 C 323.522,18.1027 391.689,53.7693 441,126.5C 486.362,204.002 489.028,283.002 449,363.5C 397.033,450.315 320.699,489.982 220,482.5C 123.85,464.271 60.8499,408.604 31,315.5C 10.8328,236.122 26.4995,164.122 78,99.5C 120.713,51.3952 173.547,24.7286 236.5,19.5 Z"/></g>
<g><path style="opacity:1" fill="#6e3492" d="M 246.5,21.5 C 341.648,24.8929 410.482,68.8929 453,153.5C 481.646,219.489 481.646,285.489 453,351.5C 419.073,419.402 364.906,461.569 290.5,478C 198.666,490.796 124.499,460.963 68,388.5C 21.6219,319.478 12.2885,245.478 40,166.5C 79.4346,76.6011 148.268,28.2678 246.5,21.5 Z"/></g>
<g><path style="opacity:1" fill="#733a94" d="M 225.5,24.5 C 322.608,19.2954 395.774,58.2954 445,141.5C 477.126,204.738 481.126,269.738 457,336.5C 422.944,416.799 362.777,463.966 276.5,478C 198.123,485.444 132.957,459.944 81,401.5C 29.4349,337.017 14.4349,264.684 36,184.5C 63.4144,103.084 118.581,51.251 201.5,29C 209.657,27.5878 217.657,26.0878 225.5,24.5 Z"/></g>
<g><path style="opacity:1" fill="#7b4497" d="M 241.5,25.5 C 337.099,27.3644 406.599,70.6977 450,155.5C 475.155,213.998 477.155,273.665 456,334.5C 421.197,416.947 359.364,464.447 270.5,477C 188.868,482.09 123.035,452.59 73,388.5C 25.6456,320 15.9789,246.333 44,167.5C 73.6288,98.1564 124.462,52.9897 196.5,32C 211.496,28.7533 226.496,26.5867 241.5,25.5 Z"/></g>
<g><path style="opacity:1" fill="#814a9a" d="M 458.5,189.5 C 453.048,175.014 446.881,160.681 440,146.5C 434.383,140.261 430.05,133.261 427,125.5C 420.892,119.717 415.892,113.051 412,105.5C 407.425,100.254 402.258,95.7538 396.5,92C 390.871,84.7075 384.204,78.3742 376.5,73C 372.723,71.3904 369.056,69.5571 365.5,67.5C 363.859,65.0034 362.192,62.5034 360.5,60C 325.954,41.2789 288.954,31.4455 249.5,30.5C 212.131,31.4613 176.798,40.2946 143.5,57C 138.34,62.4923 132.34,66.8256 125.5,70C 112.346,80.8226 99.5123,91.9893 87,103.5C 77.8384,113.851 69.6717,124.851 62.5,136.5C 84.7135,97.0246 116.38,67.5246 157.5,48C 232.932,15.6004 304.932,21.7671 373.5,66.5C 388.648,77.6699 402.482,90.3366 415,104.5C 415.557,106.615 416.391,108.615 417.5,110.5C 436.982,133.937 450.649,160.27 458.5,189.5 Z"/></g>
<g><path style="opacity:1" fill="#8a569d" d="M 365.5,67.5 C 346.853,56.5121 327.186,47.6788 306.5,41C 276.186,33.167 245.519,31.5003 214.5,36C 207.544,37.2359 200.878,39.0693 194.5,41.5C 186.507,43.4981 178.507,45.4981 170.5,47.5C 169.713,48.2421 169.047,49.0754 168.5,50C 148.491,58.226 130.491,69.3927 114.5,83.5C 110.636,86.5319 106.636,89.3653 102.5,92C 101,94.8333 98.8333,97 96,98.5C 95.6667,99.5 95.3333,100.5 95,101.5C 90.6667,105.5 86.3333,109.5 82,113.5C 74.5027,123.824 67.5027,134.491 61,145.5C 55.6942,159.085 50.1942,172.585 44.5,186C 35.037,217.093 32.3703,248.76 36.5,281C 40.2131,295.801 43.7131,310.634 47,325.5C 53.4683,339.895 60.135,354.228 67,368.5C 69.9749,373.47 73.6415,377.804 78,381.5C 91.7303,402.898 109.23,420.732 130.5,435C 133.279,435.561 135.946,436.394 138.5,437.5C 146.148,443.33 154.481,448.164 163.5,452C 228.277,478.725 291.611,475.725 353.5,443C 356.266,441.629 358.599,439.796 360.5,437.5C 364.95,435.441 369.283,433.108 373.5,430.5C 368.94,435.125 363.94,439.291 358.5,443C 302.727,475.049 243.727,481.383 181.5,462C 172.487,459.326 164.154,455.326 156.5,450C 153.647,448.57 150.647,447.737 147.5,447.5C 136.861,440.176 125.861,433.342 114.5,427C 103.398,415.393 92.398,403.56 81.5,391.5C 76.8919,383.734 71.3919,376.734 65,370.5C 59.2193,361.273 54.2193,351.606 50,341.5C 48.8539,334.062 46.5206,327.062 43,320.5C 27.1951,263.843 30.8617,208.51 54,154.5C 57.6477,148.872 60.4811,142.872 62.5,136.5C 69.6717,124.851 77.8384,113.851 87,103.5C 99.5123,91.9893 112.346,80.8226 125.5,70C 132.34,66.8256 138.34,62.4923 143.5,57C 176.798,40.2946 212.131,31.4613 249.5,30.5C 288.954,31.4455 325.954,41.2789 360.5,60C 362.192,62.5034 363.859,65.0034 365.5,67.5 Z"/></g>
<g><path style="opacity:1" fill="#470583" d="M -0.5,262.5 C 0.531631,264.434 1.1983,266.6 1.5,269C 3.84863,317.079 21.0153,363.246 53,407.5C 58.8397,413.159 63.673,419.492 67.5,426.5C 68.552,426.351 69.552,426.517 70.5,427C 104.406,463.045 145.406,487.212 193.5,499.5C 171.5,499.5 149.5,499.5 127.5,499.5C 69.1768,467.85 26.5101,421.85 -0.5,361.5C -0.5,328.5 -0.5,295.5 -0.5,262.5 Z"/></g>
<g><path style="opacity:1" fill="#470583" d="M 499.5,263.5 C 499.5,296.167 499.5,328.833 499.5,361.5C 472.382,421.95 429.716,467.95 371.5,499.5C 349.5,499.5 327.5,499.5 305.5,499.5C 370.623,482.456 421.456,446.123 458,390.5C 482.436,351.327 495.603,310.327 497.5,267.5C 497.994,265.974 498.661,264.641 499.5,263.5 Z"/></g>
<g><path style="opacity:1" fill="#9765a3" d="M 360.5,437.5 C 358.599,439.796 356.266,441.629 353.5,443C 291.611,475.725 228.277,478.725 163.5,452C 154.481,448.164 146.148,443.33 138.5,437.5C 64.7589,385.905 31.5923,314.905 39,224.5C 46.9531,167.907 72.1198,120.907 114.5,83.5C 130.491,69.3927 148.491,58.226 168.5,50C 169.047,49.0754 169.713,48.2421 170.5,47.5C 178.507,45.4981 186.507,43.4981 194.5,41.5C 250.638,27.8505 303.972,35.0172 354.5,63C 363.071,69.4464 372.071,75.1131 381.5,80C 394.104,92.6838 406.604,105.517 419,118.5C 429.254,134.666 438.254,151.666 446,169.5C 470.162,234.32 466.162,297.654 434,359.5C 415.493,391.173 390.993,417.173 360.5,437.5 Z"/></g>
<g><path style="opacity:1" fill="#b78db0" d="M 86.5,129.5 C 46.1316,189.349 37.2983,253.682 60,322.5C 63.6223,330.002 66.7889,337.669 69.5,345.5C 68.0337,344.653 67.2004,343.32 67,341.5C 66.6667,342.167 66.3333,342.833 66,343.5C 62.0302,335.149 58.1969,326.816 54.5,318.5C 51.3513,304.557 48.518,290.557 46,276.5C 41.2338,223.279 53.5671,174.612 83,130.5C 84.0113,129.663 85.1779,129.33 86.5,129.5 Z"/></g>
<g><path style="opacity:1" fill="#a576a8" d="M 378.5,82.5 C 401.237,99.8979 419.237,121.231 432.5,146.5C 461.325,203.096 466.158,261.763 447,322.5C 441.206,339.088 433.539,354.755 424,369.5C 422.887,370.305 421.721,370.972 420.5,371.5C 420.351,370.448 420.517,369.448 421,368.5C 425.426,362.413 429.426,356.08 433,349.5C 436.598,340.646 440.431,331.979 444.5,323.5C 469.081,238.527 452.081,163.361 393.5,98C 384.603,92.1206 375.936,85.7873 367.5,79C 366.663,77.9887 366.33,76.8221 366.5,75.5C 365.127,75.6567 363.793,75.49 362.5,75C 309.138,41.5417 251.805,32.7084 190.5,48.5C 214.8,40.6723 239.8,37.839 265.5,40C 299.011,41.6147 330.011,51.2813 358.5,69C 365.066,73.7471 371.732,78.2471 378.5,82.5 Z"/></g>
<g><path style="opacity:1" fill="#faf1ce" d="M 334.5,64.5 C 364.401,79.4658 389.734,100.132 410.5,126.5C 455.059,191.874 462.893,261.54 434,335.5C 409.483,388.855 369.983,426.188 315.5,447.5C 314.041,447.433 312.708,447.766 311.5,448.5C 241.055,469.321 177.388,456.821 120.5,411C 99.4336,392.128 82.4336,370.295 69.5,345.5C 66.7889,337.669 63.6223,330.002 60,322.5C 37.2983,253.682 46.1316,189.349 86.5,129.5C 106.562,102.766 131.229,81.4327 160.5,65.5C 218.291,39.1929 276.291,38.8596 334.5,64.5 Z"/></g>
<g><path style="opacity:1" fill="#b78cb0" d="M 228.5,58.5 C 309.875,54.1575 371.709,86.4909 414,155.5C 438.757,200.884 445.09,248.884 433,299.5C 416.791,358.693 381.291,401.86 326.5,429C 252.087,459.24 184.42,448.574 123.5,397C 68.3842,341.397 49.5508,275.23 67,198.5C 86.321,135.842 126.488,92.3423 187.5,68C 201.006,63.5353 214.673,60.3686 228.5,58.5 Z"/></g>
<g><path style="opacity:1" fill="#9968a3" d="M 346.5,93.5 C 349.994,98.1533 354.327,101.987 359.5,105C 365.279,111.489 371.446,117.656 378,123.5C 420.901,172.088 436.235,228.421 424,292.5C 413.533,336.453 390.7,372.453 355.5,400.5C 348.39,405.229 341.056,409.729 333.5,414C 332.5,415.667 331.167,417 329.5,418C 274.563,444.721 220.229,443.887 166.5,415.5C 185.609,424.368 205.609,430.535 226.5,434C 254.871,437.481 282.537,434.481 309.5,425C 325.414,417.041 340.747,408.041 355.5,398C 357.041,396.629 358.375,395.129 359.5,393.5C 369.068,386.769 377.568,378.769 385,369.5C 393.358,359.451 400.192,348.451 405.5,336.5C 417.253,315.525 424.087,292.858 426,268.5C 429.979,207.613 409.812,156.113 365.5,114C 313.501,71.001 255.168,59.6677 190.5,80C 120.721,109.012 81.554,161.179 73,236.5C 69.8152,276.591 78.6486,313.758 99.5,348C 98.9056,348.464 98.2389,348.631 97.5,348.5C 61.7063,284.321 61.5396,219.988 97,155.5C 128.051,107.158 171.718,77.8245 228,67.5C 228.333,67.8333 228.667,68.1667 229,68.5C 231.405,67.7256 233.905,67.2256 236.5,67C 245.5,66.3333 254.5,66.3333 263.5,67C 277.323,68.5652 290.989,70.8985 304.5,74C 316.717,79.4416 328.717,85.4416 340.5,92C 342.518,92.5046 344.518,93.0046 346.5,93.5 Z"/></g>
<g><path style="opacity:1" fill="#733a94" d="M 121.5,142.5 C 120.134,145.232 118.801,147.899 117.5,150.5C 104.94,166.618 95.7734,184.618 90,204.5C 74.8791,268.017 88.8791,324.017 132,372.5C 138.083,378.424 144.583,383.757 151.5,388.5C 151.5,389.5 151.5,390.5 151.5,391.5C 106.394,355.956 83.0611,309.289 81.5,251.5C 82.3556,211.828 94.5223,176.162 118,144.5C 118.816,143.177 119.983,142.511 121.5,142.5 Z"/></g>
<g><path style="opacity:1" fill="#a373a7" d="M 341.5,88.5 C 342.492,88.3284 343.158,88.6618 343.5,89.5C 344.5,90.8333 345.5,92.1667 346.5,93.5C 344.518,93.0046 342.518,92.5046 340.5,92C 328.717,85.4416 316.717,79.4416 304.5,74C 290.989,70.8985 277.323,68.5652 263.5,67C 254.5,66.3333 245.5,66.3333 236.5,67C 233.905,67.2256 231.405,67.7256 229,68.5C 228.667,68.1667 228.333,67.8333 228,67.5C 171.718,77.8245 128.051,107.158 97,155.5C 61.5396,219.988 61.7063,284.321 97.5,348.5C 114.956,376.624 137.956,398.957 166.5,415.5C 220.229,443.887 274.563,444.721 329.5,418C 331.167,417 332.5,415.667 333.5,414C 341.056,409.729 348.39,405.229 355.5,400.5C 355.703,402.39 355.037,403.89 353.5,405C 340.903,413.461 327.903,421.127 314.5,428C 303.545,430.594 292.545,433.094 281.5,435.5C 279.579,435.86 277.912,436.694 276.5,438C 225.569,444.854 179.902,432.854 139.5,402C 138.552,401.517 137.552,401.351 136.5,401.5C 128.612,393.109 120.445,384.776 112,376.5C 72.7307,328.767 58.7307,274.1 70,212.5C 76.2136,185.43 87.2136,160.763 103,138.5C 116.462,124.198 130.629,110.865 145.5,98.5C 151.429,95.3808 156.762,91.5474 161.5,87C 221.83,55.2933 281.83,55.7933 341.5,88.5 Z"/></g>
<g><path style="opacity:1" fill="#753d95" d="M 346.5,393.5 C 346.567,392.041 346.234,390.708 345.5,389.5C 351.977,385.748 357.977,381.248 363.5,376C 412.679,323.097 426.512,261.931 405,192.5C 379.238,128.419 332.071,91.5855 263.5,82C 252.148,81.3103 240.815,81.477 229.5,82.5C 221.167,82.5 212.833,82.5 204.5,82.5C 205.919,81.5489 207.585,81.2155 209.5,81.5C 285.989,68.0282 346.489,92.6948 391,155.5C 424.35,212.107 427.684,270.44 401,330.5C 390.22,351.611 376.053,370.111 358.5,386C 354.598,388.751 350.598,391.251 346.5,393.5 Z"/></g>
<g><path style="opacity:1" fill="#ac7fab" d="M 341.5,88.5 C 281.83,55.7933 221.83,55.2933 161.5,87C 156.762,91.5474 151.429,95.3808 145.5,98.5C 130.629,110.865 116.462,124.198 103,138.5C 87.2136,160.763 76.2136,185.43 70,212.5C 58.7307,274.1 72.7307,328.767 112,376.5C 120.445,384.776 128.612,393.109 136.5,401.5C 105.222,377.002 83.722,345.669 72,307.5C 52.1278,229.113 71.2945,162.28 129.5,107C 186.167,60.4062 249.167,49.7395 318.5,75C 325.875,78.6874 333.208,82.3541 340.5,86C 341.252,86.6708 341.586,87.5041 341.5,88.5 Z"/></g>
<g><path style="opacity:1" fill="#87539c" d="M 150.5,104.5 C 145.859,108.805 141.193,113.139 136.5,117.5C 127.265,125.32 119.432,134.32 113,144.5C 78.0119,196.079 69.6785,251.746 88,311.5C 94.5359,326.565 101.536,341.232 109,355.5C 121.744,370.08 135.577,383.413 150.5,395.5C 151.429,394.311 151.762,392.978 151.5,391.5C 151.5,390.5 151.5,389.5 151.5,388.5C 151.5,386.5 151.5,384.5 151.5,382.5C 151.833,382.5 152.167,382.5 152.5,382.5C 151.903,387.294 152.57,391.627 154.5,395.5C 155.776,398.611 157.943,400.945 161,402.5C 169.194,407.513 177.694,411.847 186.5,415.5C 186.5,415.833 186.5,416.167 186.5,416.5C 184.874,418.243 182.874,418.743 180.5,418C 111.135,384.057 76.1346,328.223 75.5,250.5C 75.8407,190.072 99.8407,141.572 147.5,105C 148.448,104.517 149.448,104.351 150.5,104.5 Z"/></g>
<g><path style="opacity:1" fill="#7d4598" d="M 136.5,117.5 C 130.745,125.336 125.745,133.669 121.5,142.5C 119.983,142.511 118.816,143.177 118,144.5C 94.5223,176.162 82.3556,211.828 81.5,251.5C 83.0611,309.289 106.394,355.956 151.5,391.5C 151.762,392.978 151.429,394.311 150.5,395.5C 135.577,383.413 121.744,370.08 109,355.5C 101.536,341.232 94.5359,326.565 88,311.5C 69.6785,251.746 78.0119,196.079 113,144.5C 119.432,134.32 127.265,125.32 136.5,117.5 Z"/></g>
<g><path style="opacity:1" fill="#6a3091" d="M 117.5,150.5 C 116.456,155.355 115.123,160.022 113.5,164.5C 91.7434,200.228 84.2434,238.894 91,280.5C 98.6393,322.224 118.806,356.224 151.5,382.5C 151.5,384.5 151.5,386.5 151.5,388.5C 144.583,383.757 138.083,378.424 132,372.5C 88.8791,324.017 74.8791,268.017 90,204.5C 95.7734,184.618 104.94,166.618 117.5,150.5 Z"/></g>
<g><path style="opacity:1" fill="#7e4899" d="M 346.5,394.5 C 346.5,394.167 346.5,393.833 346.5,393.5C 350.598,391.251 354.598,388.751 358.5,386C 376.053,370.111 390.22,351.611 401,330.5C 427.684,270.44 424.35,212.107 391,155.5C 346.489,92.6948 285.989,68.0282 209.5,81.5C 211.412,79.7763 213.745,78.443 216.5,77.5C 237.799,73.7124 259.132,73.5457 280.5,77C 301.247,83.1493 321.247,91.4826 340.5,102C 387.405,134.091 413.905,178.924 420,236.5C 423.346,302.577 399.346,355.91 348,396.5C 347.722,395.584 347.222,394.918 346.5,394.5 Z"/></g>
<g><path style="opacity:1" fill="#652a8f" d="M 345.5,387.5 C 345.029,385.421 344.363,383.421 343.5,381.5C 356.742,372.759 367.909,361.759 377,348.5C 412.337,294.156 417.004,237.489 391,178.5C 363.462,125.633 319.962,95.9659 260.5,89.5C 258.631,89.5068 256.964,89.8401 255.5,90.5C 250.147,88.275 244.814,86.275 239.5,84.5C 296.21,82.1906 342.21,103.191 377.5,147.5C 411.855,195.591 421.022,247.591 405,303.5C 393.831,337.671 373.998,365.671 345.5,387.5 Z"/></g>
<g><path style="opacity:1" fill="#541588" d="M 273.5,100.5 C 273.56,99.9569 273.893,99.6236 274.5,99.5C 331.461,111.589 370.294,145.256 391,200.5C 408.552,259.893 397.552,312.893 358,359.5C 348.995,368.25 339.162,375.916 328.5,382.5C 328.5,381.833 328.167,381.5 327.5,381.5C 325.882,385.084 324.882,389.084 324.5,393.5C 324.118,389.084 323.118,385.084 321.5,381.5C 344.649,366.851 362.815,347.518 376,323.5C 378.723,318.053 380.89,312.386 382.5,306.5C 383.222,306.082 383.722,305.416 384,304.5C 384.498,301.518 384.665,298.518 384.5,295.5C 385.29,296.609 385.79,297.942 386,299.5C 401.608,246.322 392.608,197.988 359,154.5C 338.574,130.812 313.407,115.479 283.5,108.5C 280.167,105.833 276.833,103.167 273.5,100.5 Z"/></g>
<g><path style="opacity:1" fill="#5b1e8b" d="M 255.5,90.5 C 256.964,89.8401 258.631,89.5068 260.5,89.5C 319.962,95.9659 363.462,125.633 391,178.5C 417.004,237.489 412.337,294.156 377,348.5C 367.909,361.759 356.742,372.759 343.5,381.5C 340.914,382.487 339.581,384.487 339.5,387.5C 335.939,389.048 332.606,391.048 329.5,393.5C 328.511,389.893 328.177,386.226 328.5,382.5C 339.162,375.916 348.995,368.25 358,359.5C 397.552,312.893 408.552,259.893 391,200.5C 370.294,145.256 331.461,111.589 274.5,99.5C 273.893,99.6236 273.56,99.9569 273.5,100.5C 267.79,96.6452 261.79,93.3119 255.5,90.5 Z"/></g>
<g><path style="opacity:1" fill="#6e3492" d="M 345.5,389.5 C 345.5,388.833 345.5,388.167 345.5,387.5C 373.998,365.671 393.831,337.671 405,303.5C 421.022,247.591 411.855,195.591 377.5,147.5C 342.21,103.191 296.21,82.1906 239.5,84.5C 235.96,84.2474 232.627,83.5808 229.5,82.5C 240.815,81.477 252.148,81.3103 263.5,82C 332.071,91.5855 379.238,128.419 405,192.5C 426.512,261.931 412.679,323.097 363.5,376C 357.977,381.248 351.977,385.748 345.5,389.5 Z"/></g>
<g><path style="opacity:1" fill="#a070a6" d="M 378.5,82.5 C 371.732,78.2471 365.066,73.7471 358.5,69C 330.011,51.2813 299.011,41.6147 265.5,40C 239.8,37.839 214.8,40.6723 190.5,48.5C 182.958,50.2919 175.625,52.7919 168.5,56C 157.536,62.4852 146.536,68.9852 135.5,75.5C 127.523,82.1545 119.19,88.3211 110.5,94C 105.224,99.4461 99.8908,104.613 94.5,109.5C 92.5372,110.96 90.7038,112.627 89,114.5C 83.5727,122.066 78.0727,129.399 72.5,136.5C 104.868,84.616 151.201,52.4493 211.5,40C 264.439,30.6077 313.772,39.941 359.5,68C 366.303,72.3134 372.636,77.1468 378.5,82.5 Z"/></g>
<g><path style="opacity:1" fill="#ae81ac" d="M 444.5,323.5 C 443.176,324.85 442.176,324.683 441.5,323C 463.659,253.758 454.826,188.925 415,128.5C 413.89,126.963 412.39,126.297 410.5,126.5C 389.734,100.132 364.401,79.4658 334.5,64.5C 334.719,63.325 334.386,62.325 333.5,61.5C 292.118,42.5229 249.118,38.0229 204.5,48C 189.475,51.2856 175.142,56.4523 161.5,63.5C 160.702,63.9569 160.369,64.6236 160.5,65.5C 131.229,81.4327 106.562,102.766 86.5,129.5C 85.1779,129.33 84.0113,129.663 83,130.5C 53.5671,174.612 41.2338,223.279 46,276.5C 48.518,290.557 51.3513,304.557 54.5,318.5C 37.4867,265.321 40.32,212.988 63,161.5C 67.2147,154.404 70.8813,147.071 74,139.5C 80.171,130.511 86.8377,121.845 94,113.5C 94.49,112.207 94.6567,110.873 94.5,109.5C 99.8908,104.613 105.224,99.4461 110.5,94C 119.19,88.3211 127.523,82.1545 135.5,75.5C 146.536,68.9852 157.536,62.4852 168.5,56C 175.625,52.7919 182.958,50.2919 190.5,48.5C 251.805,32.7084 309.138,41.5417 362.5,75C 363.793,75.49 365.127,75.6567 366.5,75.5C 366.33,76.8221 366.663,77.9887 367.5,79C 375.936,85.7873 384.603,92.1206 393.5,98C 452.081,163.361 469.081,238.527 444.5,323.5 Z"/></g>
<g><path style="opacity:1" fill="#b88eb0" d="M 334.5,64.5 C 276.291,38.8596 218.291,39.1929 160.5,65.5C 160.369,64.6236 160.702,63.9569 161.5,63.5C 175.142,56.4523 189.475,51.2856 204.5,48C 249.118,38.0229 292.118,42.5229 333.5,61.5C 334.386,62.325 334.719,63.325 334.5,64.5 Z"/></g>
<g><path style="opacity:1" fill="#b489af" d="M 410.5,126.5 C 412.39,126.297 413.89,126.963 415,128.5C 454.826,188.925 463.659,253.758 441.5,323C 442.176,324.683 443.176,324.85 444.5,323.5C 440.431,331.979 436.598,340.646 433,349.5C 429.426,356.08 425.426,362.413 421,368.5C 420.517,369.448 420.351,370.448 420.5,371.5C 413.864,379.647 407.364,387.981 401,396.5C 397.908,397.923 395.908,400.257 395,403.5C 392.318,405.903 389.818,408.403 387.5,411C 382.846,413.903 378.179,416.903 373.5,420C 371.959,421.371 370.625,422.871 369.5,424.5C 357.869,429.484 346.536,435.317 335.5,442C 329.23,445.303 322.563,447.137 315.5,447.5C 369.983,426.188 409.483,388.855 434,335.5C 462.893,261.54 455.059,191.874 410.5,126.5 Z"/></g>
<g><path style="opacity:1" fill="#915ea0" d="M 114.5,83.5 C 72.1198,120.907 46.9531,167.907 39,224.5C 31.5923,314.905 64.7589,385.905 138.5,437.5C 135.946,436.394 133.279,435.561 130.5,435C 109.23,420.732 91.7303,402.898 78,381.5C 73.6415,377.804 69.9749,373.47 67,368.5C 60.135,354.228 53.4683,339.895 47,325.5C 43.7131,310.634 40.2131,295.801 36.5,281C 32.3703,248.76 35.037,217.093 44.5,186C 50.1942,172.585 55.6942,159.085 61,145.5C 67.5027,134.491 74.5027,123.824 82,113.5C 86.3333,109.5 90.6667,105.5 95,101.5C 95.3333,100.5 95.6667,99.5 96,98.5C 98.8333,97 101,94.8333 102.5,92C 106.636,89.3653 110.636,86.5319 114.5,83.5 Z"/></g>
<g><path style="opacity:1" fill="#430081" d="M -0.5,361.5 C 26.5101,421.85 69.1768,467.85 127.5,499.5C 84.8333,499.5 42.1667,499.5 -0.5,499.5C -0.5,453.5 -0.5,407.5 -0.5,361.5 Z"/></g>
<g><path style="opacity:1" fill="#430081" d="M 499.5,361.5 C 499.5,407.5 499.5,453.5 499.5,499.5C 456.833,499.5 414.167,499.5 371.5,499.5C 429.716,467.95 472.382,421.95 499.5,361.5 Z"/></g>
<g><path style="opacity:1" fill="#a272a7" d="M 346.5,93.5 C 348.783,93.6079 350.783,94.4412 352.5,96C 360.709,102.42 368.709,109.087 376.5,116C 384.711,125.209 392.544,134.709 400,144.5C 404.539,154.575 409.872,164.241 416,173.5C 431.984,209.68 436.651,247.347 430,286.5C 419.459,331.797 396.625,369.297 361.5,399C 359.482,399.505 357.482,400.005 355.5,400.5C 390.7,372.453 413.533,336.453 424,292.5C 436.235,228.421 420.901,172.088 378,123.5C 371.446,117.656 365.279,111.489 359.5,105C 354.327,101.987 349.994,98.1533 346.5,93.5 Z"/></g>
<g><path style="opacity:1" fill="#a779a9" d="M 94.5,109.5 C 94.6567,110.873 94.49,112.207 94,113.5C 86.8377,121.845 80.171,130.511 74,139.5C 70.8813,147.071 67.2147,154.404 63,161.5C 40.32,212.988 37.4867,265.321 54.5,318.5C 58.1969,326.816 62.0302,335.149 66,343.5C 66.3333,342.833 66.6667,342.167 67,341.5C 67.2004,343.32 68.0337,344.653 69.5,345.5C 69.3367,347.857 69.5034,350.19 70,352.5C 107.176,416.615 161.676,452.448 233.5,460C 260.072,461.843 286.072,459.01 311.5,451.5C 311.5,450.5 311.5,449.5 311.5,448.5C 312.708,447.766 314.041,447.433 315.5,447.5C 322.563,447.137 329.23,445.303 335.5,442C 346.536,435.317 357.869,429.484 369.5,424.5C 368.284,426.451 366.618,427.951 364.5,429C 361.624,429.438 358.957,430.438 356.5,432C 343.248,439.12 330.248,446.453 317.5,454C 272.163,469.219 226.829,469.219 181.5,454C 165.935,446.761 150.601,439.094 135.5,431C 79.2059,391.619 47.7059,337.453 41,268.5C 38.9921,240.921 41.9921,213.921 50,187.5C 53.5141,177.812 57.0141,168.145 60.5,158.5C 63.2701,150.422 67.2701,143.089 72.5,136.5C 78.0727,129.399 83.5727,122.066 89,114.5C 90.7038,112.627 92.5372,110.96 94.5,109.5 Z"/></g>
<g><path style="opacity:1" fill="#915da0" d="M 365.5,67.5 C 369.056,69.5571 372.723,71.3904 376.5,73C 384.204,78.3742 390.871,84.7075 396.5,92C 402.258,95.7538 407.425,100.254 412,105.5C 415.892,113.051 420.892,119.717 427,125.5C 430.05,133.261 434.383,140.261 440,146.5C 446.881,160.681 453.048,175.014 458.5,189.5C 460.988,203.44 463.154,217.44 465,231.5C 466.189,251.596 465.356,271.596 462.5,291.5C 460.427,295.221 459.26,299.221 459,303.5C 458,304.833 457,306.167 456,307.5C 449.817,332.211 439.484,355.211 425,376.5C 422.855,382.809 419.022,387.809 413.5,391.5C 401.444,405.89 388.111,418.89 373.5,430.5C 369.283,433.108 364.95,435.441 360.5,437.5C 390.993,417.173 415.493,391.173 434,359.5C 466.162,297.654 470.162,234.32 446,169.5C 438.254,151.666 429.254,134.666 419,118.5C 406.604,105.517 394.104,92.6838 381.5,80C 372.071,75.1131 363.071,69.4464 354.5,63C 303.972,35.0172 250.638,27.8505 194.5,41.5C 200.878,39.0693 207.544,37.2359 214.5,36C 245.519,31.5003 276.186,33.167 306.5,41C 327.186,47.6788 346.853,56.5121 365.5,67.5 Z"/></g>
<g><path style="opacity:1" fill="#ac7eab" d="M 343.5,89.5 C 364.828,101.48 382.828,117.48 397.5,137.5C 436.47,193.685 444.97,254.352 423,319.5C 397.16,383.496 350.66,423.33 283.5,439C 228.502,448.502 179.502,436.002 136.5,401.5C 137.552,401.351 138.552,401.517 139.5,402C 179.902,432.854 225.569,444.854 276.5,438C 277.912,436.694 279.579,435.86 281.5,435.5C 292.545,433.094 303.545,430.594 314.5,428C 327.903,421.127 340.903,413.461 353.5,405C 355.037,403.89 355.703,402.39 355.5,400.5C 357.482,400.005 359.482,399.505 361.5,399C 396.625,369.297 419.459,331.797 430,286.5C 436.651,247.347 431.984,209.68 416,173.5C 409.872,164.241 404.539,154.575 400,144.5C 392.544,134.709 384.711,125.209 376.5,116C 368.709,109.087 360.709,102.42 352.5,96C 350.783,94.4412 348.783,93.6079 346.5,93.5C 345.5,92.1667 344.5,90.8333 343.5,89.5 Z"/></g>
<g><path style="opacity:1" fill="#87529c" d="M 405.5,336.5 C 400.192,348.451 393.358,359.451 385,369.5C 377.568,378.769 369.068,386.769 359.5,393.5C 347.596,401.542 335.263,409.042 322.5,416C 319.429,416.147 316.596,416.98 314,418.5C 313.722,417.584 313.222,416.918 312.5,416.5C 312.634,414.708 312.301,413.042 311.5,411.5C 323.159,407.503 333.826,401.67 343.5,394C 342.423,393.53 341.423,393.697 340.5,394.5C 341.183,392.824 342.517,392.157 344.5,392.5C 344.281,393.675 344.614,394.675 345.5,395.5C 346.107,395.376 346.44,395.043 346.5,394.5C 347.222,394.918 347.722,395.584 348,396.5C 399.346,355.91 423.346,302.577 420,236.5C 413.905,178.924 387.405,134.091 340.5,102C 321.247,91.4826 301.247,83.1493 280.5,77C 259.132,73.5457 237.799,73.7124 216.5,77.5C 213.745,78.443 211.412,79.7763 209.5,81.5C 207.585,81.2155 205.919,81.5489 204.5,82.5C 195.939,83.0573 187.605,84.7239 179.5,87.5C 180.749,85.8639 182.416,84.6972 184.5,84C 239.167,63.5203 291.5,68.187 341.5,98C 346.826,102.985 352.493,107.651 358.5,112C 421.819,168.418 439.985,237.251 413,318.5C 410.211,324.407 407.711,330.407 405.5,336.5 Z"/></g>
<g><path style="opacity:1" fill="#9462a2" d="M 405.5,336.5 C 407.711,330.407 410.211,324.407 413,318.5C 439.985,237.251 421.819,168.418 358.5,112C 352.493,107.651 346.826,102.985 341.5,98C 291.5,68.187 239.167,63.5203 184.5,84C 182.416,84.6972 180.749,85.8639 179.5,87.5C 169.112,91.8634 159.445,97.5301 150.5,104.5C 149.448,104.351 148.448,104.517 147.5,105C 99.8407,141.572 75.8407,190.072 75.5,250.5C 76.1346,328.223 111.135,384.057 180.5,418C 182.874,418.743 184.874,418.243 186.5,416.5C 186.5,417.167 186.5,417.833 186.5,418.5C 187.122,420.335 188.456,421.502 190.5,422C 229.574,435.969 268.908,435.969 308.5,422C 310.544,421.502 311.878,420.335 312.5,418.5C 312.5,417.833 312.5,417.167 312.5,416.5C 313.222,416.918 313.722,417.584 314,418.5C 316.596,416.98 319.429,416.147 322.5,416C 335.263,409.042 347.596,401.542 359.5,393.5C 358.375,395.129 357.041,396.629 355.5,398C 340.747,408.041 325.414,417.041 309.5,425C 282.537,434.481 254.871,437.481 226.5,434C 205.609,430.535 185.609,424.368 166.5,415.5C 137.956,398.957 114.956,376.624 97.5,348.5C 98.2389,348.631 98.9056,348.464 99.5,348C 78.6486,313.758 69.8152,276.591 73,236.5C 81.554,161.179 120.721,109.012 190.5,80C 255.168,59.6677 313.501,71.001 365.5,114C 409.812,156.113 429.979,207.613 426,268.5C 424.087,292.858 417.253,315.525 405.5,336.5 Z"/></g>
<g><path style="opacity:1" fill="#450182" d="M 376.5,269.5 C 368.362,263.219 364.528,254.886 365,244.5C 360.711,238.917 357.211,232.917 354.5,226.5C 345.161,218.348 334.494,212.514 322.5,209C 319.518,208.502 316.518,208.335 313.5,208.5C 318.91,182.264 315.576,157.264 303.5,133.5C 303.435,133.062 303.601,132.728 304,132.5C 339.54,150.81 362.373,178.81 372.5,216.5C 372.291,217.086 371.957,217.586 371.5,218C 373.489,223.232 374.989,228.732 376,234.5C 376.376,246.323 376.543,257.989 376.5,269.5 Z"/></g>
<g><path style="opacity:1" fill="#4c0b85" d="M 384.5,295.5 C 384.001,290.508 383.501,285.508 383,280.5C 380.81,276.778 378.644,273.111 376.5,269.5C 376.543,257.989 376.376,246.323 376,234.5C 374.989,228.732 373.489,223.232 371.5,218C 371.957,217.586 372.291,217.086 372.5,216.5C 362.373,178.81 339.54,150.81 304,132.5C 303.601,132.728 303.435,133.062 303.5,133.5C 297.624,124.614 290.957,116.281 283.5,108.5C 313.407,115.479 338.574,130.812 359,154.5C 392.608,197.988 401.608,246.322 386,299.5C 385.79,297.942 385.29,296.609 384.5,295.5 Z"/></g>
<g><path style="opacity:1" fill="#cf08a9" d="M 204.5,82.5 C 212.833,82.5 221.167,82.5 229.5,82.5C 232.627,83.5808 235.96,84.2474 239.5,84.5C 244.814,86.275 250.147,88.275 255.5,90.5C 261.79,93.3119 267.79,96.6452 273.5,100.5C 276.833,103.167 280.167,105.833 283.5,108.5C 290.957,116.281 297.624,124.614 303.5,133.5C 315.576,157.264 318.91,182.264 313.5,208.5C 316.518,208.335 319.518,208.502 322.5,209C 334.494,212.514 345.161,218.348 354.5,226.5C 357.211,232.917 360.711,238.917 365,244.5C 364.528,254.886 368.362,263.219 376.5,269.5C 378.644,273.111 380.81,276.778 383,280.5C 383.501,285.508 384.001,290.508 384.5,295.5C 384.665,298.518 384.498,301.518 384,304.5C 383.722,305.416 383.222,306.082 382.5,306.5C 378.904,304.511 375.237,302.511 371.5,300.5C 372.191,311.31 367.191,316.144 356.5,315C 355.446,313.612 355.28,312.112 356,310.5C 359.824,309.169 361.324,306.503 360.5,302.5C 360.677,298.706 359.677,295.373 357.5,292.5C 350.456,287.555 342.956,283.222 335,279.5C 334.5,279.833 334,280.167 333.5,280.5C 334.916,285.749 337.416,290.416 341,294.5C 341.667,295.833 341.667,297.167 341,298.5C 338.194,306.108 334.36,313.108 329.5,319.5C 328.624,320.251 327.624,320.751 326.5,321C 322.848,321.499 319.182,321.665 315.5,321.5C 315.351,320.448 315.517,319.448 316,318.5C 328.85,310.674 330.85,300.674 322,288.5C 314.096,281.266 306.929,273.433 300.5,265C 291.833,264.333 283.167,264.333 274.5,265C 274,265.5 273.5,266 273,266.5C 271.482,277.166 271.315,287.832 272.5,298.5C 270.249,304.429 267.916,310.263 265.5,316C 260.537,316.253 255.704,317.087 251,318.5C 248.729,318.826 247.229,317.992 246.5,316C 248.28,313.216 250.447,310.716 253,308.5C 253.981,298.346 253.148,288.346 250.5,278.5C 214.297,290.954 180.964,285.788 150.5,263C 145.63,258.298 140.963,253.465 136.5,248.5C 128.446,239.065 122.446,228.398 118.5,216.5C 116.203,209.313 114.537,201.98 113.5,194.5C 113.842,184.589 113.842,174.589 113.5,164.5C 115.123,160.022 116.456,155.355 117.5,150.5C 118.801,147.899 120.134,145.232 121.5,142.5C 125.745,133.669 130.745,125.336 136.5,117.5C 141.193,113.139 145.859,108.805 150.5,104.5C 159.445,97.5301 169.112,91.8634 179.5,87.5C 187.605,84.7239 195.939,83.0573 204.5,82.5 Z"/></g>
<g><path style="opacity:1" fill="#731991" d="M 143.5,139.5 C 144.525,139.897 144.692,140.563 144,141.5C 141.037,143.461 138.371,145.794 136,148.5C 135.333,146.833 135.333,145.167 136,143.5C 136.333,144.167 136.667,144.833 137,145.5C 138.188,144.437 138.688,143.103 138.5,141.5C 140.553,141.598 142.22,140.931 143.5,139.5 Z"/></g>
<g><path style="opacity:1" fill="#530c87" d="M 209.5,127.5 C 193.48,131.867 179.147,140.034 166.5,152C 165.256,152.456 164.423,151.956 164,150.5C 161.5,154.333 158.333,157.5 154.5,160C 155.167,160.333 155.833,160.667 156.5,161C 154.35,164.478 151.85,167.645 149,170.5C 148.205,174.312 147.371,177.979 146.5,181.5C 145.095,178.739 143.761,175.906 142.5,173C 140.527,172.505 138.527,172.338 136.5,172.5C 136.5,170.167 136.5,167.833 136.5,165.5C 137.5,165.5 138.5,165.5 139.5,165.5C 139.238,166.978 139.571,168.311 140.5,169.5C 141.452,167.955 141.785,166.288 141.5,164.5C 139.5,163.833 137.5,163.167 135.5,162.5C 135.5,161.167 135.5,159.833 135.5,158.5C 134.5,158.5 133.5,158.5 132.5,158.5C 131.503,168.176 130.17,168.509 128.5,159.5C 127.137,160.879 126.137,160.713 125.5,159C 127.278,156.048 129.278,153.214 131.5,150.5C 132.167,150.833 132.833,151.167 133.5,151.5C 137.113,148.537 140.28,148.871 143,152.5C 150.43,150.728 153.43,146.062 152,138.5C 152.622,136.269 153.789,134.435 155.5,133C 154.692,132.692 154.025,132.192 153.5,131.5C 156.781,127.528 160.781,124.528 165.5,122.5C 167.078,123.64 168.744,124.14 170.5,124C 169.643,123.311 168.977,122.478 168.5,121.5C 171.488,119.678 173.988,117.345 176,114.5C 177.892,115.13 179.559,116.13 181,117.5C 181.492,116.451 181.326,115.451 180.5,114.5C 181.515,113.319 182.681,112.319 184,111.5C 188.936,114.585 192.436,113.918 194.5,109.5C 196.071,110.309 197.738,110.643 199.5,110.5C 199.335,113.518 199.502,116.518 200,119.5C 202.362,120.352 204.195,121.852 205.5,124C 206.793,124.49 208.127,124.657 209.5,124.5C 209.5,125.5 209.5,126.5 209.5,127.5 Z"/></g>
<g><path style="opacity:1" fill="#470083" d="M 287.5,175.5 C 286.115,176.614 284.615,177.614 283,178.5C 281.286,173.403 279.952,173.737 279,179.5C 278.386,181.879 278.053,184.212 278,186.5C 278.333,186.833 278.667,187.167 279,187.5C 280.725,180.963 282.225,180.963 283.5,187.5C 284.086,187.291 284.586,186.957 285,186.5C 285.903,187.701 287.069,188.535 288.5,189C 287.034,189.635 285.7,190.469 284.5,191.5C 282.436,189.739 280.269,189.405 278,190.5C 277.242,193.233 277.742,195.733 279.5,198C 279.354,199.727 278.687,199.894 277.5,198.5C 277.167,199.333 276.833,200.167 276.5,201C 276.943,202.825 277.277,204.658 277.5,206.5C 271.3,206.984 265.3,206.151 259.5,204C 254.333,200.326 253.333,195.826 256.5,190.5C 256.281,189.062 255.781,187.729 255,186.5C 248.482,179.95 242.316,173.117 236.5,166C 227.873,163.388 220.873,158.388 215.5,151C 212.056,151.254 210.723,153.254 211.5,157C 212.393,162.152 212.56,167.319 212,172.5C 211.196,173.804 210.029,174.471 208.5,174.5C 207.054,172.96 205.388,172.127 203.5,172C 201.556,174.153 201.056,176.653 202,179.5C 208.389,182.889 213.056,187.889 216,194.5C 217.389,207.339 220.222,219.839 224.5,232C 224.355,232.772 224.022,233.439 223.5,234C 227.329,238.656 230.663,243.656 233.5,249C 232.552,249.483 231.552,249.649 230.5,249.5C 229.986,251.512 229.82,253.512 230,255.5C 231.613,254.378 232.78,254.878 233.5,257C 231.491,256.406 229.491,256.573 227.5,257.5C 226.186,256.687 225.019,255.687 224,254.5C 221.173,256.494 218.673,258.828 216.5,261.5C 214.107,259.706 211.44,259.706 208.5,261.5C 204.9,260.269 203.9,261.436 205.5,265C 204.584,265.374 203.75,265.874 203,266.5C 202.116,263.922 200.949,261.922 199.5,260.5C 199.76,258.813 200.427,257.313 201.5,256C 199.285,257.145 196.785,257.979 194,258.5C 193.167,258.167 192.333,257.833 191.5,257.5C 194.452,255.144 195.452,252.311 194.5,249C 195.033,246.774 195.7,244.607 196.5,242.5C 195.5,242.5 194.5,242.5 193.5,242.5C 193.728,244.355 193.061,245.188 191.5,245C 192.088,242.805 191.421,240.805 189.5,239C 190.549,236.583 192.215,234.75 194.5,233.5C 194.333,233.167 194.167,232.833 194,232.5C 193.163,234.007 191.996,234.507 190.5,234C 191.337,232.989 191.67,231.822 191.5,230.5C 188.832,230.334 186.498,229.334 184.5,227.5C 182.475,230.208 180.475,232.875 178.5,235.5C 178.331,234.603 177.998,233.603 177.5,232.5C 176.137,233.879 175.137,233.713 174.5,232C 175.829,230.34 176.829,228.507 177.5,226.5C 176.167,225.833 174.833,225.167 173.5,224.5C 174.025,223.808 174.692,223.308 175.5,223C 173.567,222.217 172.067,222.717 171,224.5C 167.536,222.871 165.369,220.204 164.5,216.5C 163.264,217.246 161.93,217.579 160.5,217.5C 160.5,216.5 160.5,215.5 160.5,214.5C 159.448,214.351 158.448,214.517 157.5,215C 158.711,216.113 158.711,217.28 157.5,218.5C 159.5,219.5 161.5,220.5 163.5,221.5C 163.167,222.167 162.833,222.833 162.5,223.5C 159.894,224.652 157.227,224.818 154.5,224C 153.413,219.346 151.413,215.179 148.5,211.5C 147.347,214.446 146.347,217.446 145.5,220.5C 143.604,221.466 141.604,221.799 139.5,221.5C 139.483,219.435 139.15,217.435 138.5,215.5C 136.01,214.521 136.01,213.354 138.5,212C 137.878,208.546 136.211,205.713 133.5,203.5C 134.309,201.929 134.643,200.262 134.5,198.5C 135.5,198.5 136.5,198.5 137.5,198.5C 137.167,201.5 138.5,202.833 141.5,202.5C 142.032,200.37 142.865,198.37 144,196.5C 144.998,199.028 145.831,199.028 146.5,196.5C 142.566,191.579 142.566,186.579 146.5,181.5C 147.371,177.979 148.205,174.312 149,170.5C 151.85,167.645 154.35,164.478 156.5,161C 155.833,160.667 155.167,160.333 154.5,160C 158.333,157.5 161.5,154.333 164,150.5C 164.423,151.956 165.256,152.456 166.5,152C 179.147,140.034 193.48,131.867 209.5,127.5C 210.709,132.235 213.375,133.402 217.5,131C 215.393,129.736 214.393,127.903 214.5,125.5C 215.552,125.351 216.552,125.517 217.5,126C 218.112,127.303 218.446,128.47 218.5,129.5C 219.851,125.987 222.184,124.987 225.5,126.5C 226.251,125.624 226.751,124.624 227,123.5C 227.333,123.833 227.667,124.167 228,124.5C 228.483,123.552 228.649,122.552 228.5,121.5C 237.075,124.534 238.408,122.534 232.5,115.5C 232.833,115.167 233.167,114.833 233.5,114.5C 235.591,117.6 237.591,120.767 239.5,124C 240.549,124.492 241.549,124.326 242.5,123.5C 243.524,124.853 244.857,125.52 246.5,125.5C 244.972,128.929 243.639,132.596 242.5,136.5C 242.559,138.767 243.392,139.433 245,138.5C 246.202,136.323 246.702,133.989 246.5,131.5C 247.5,131.5 248.5,131.5 249.5,131.5C 249.5,132.5 249.5,133.5 249.5,134.5C 251.262,134.357 252.929,134.691 254.5,135.5C 254.833,134.833 255.167,134.167 255.5,133.5C 253.502,129.543 251.502,125.543 249.5,121.5C 250.813,119.115 252.48,118.948 254.5,121C 254.043,121.414 253.709,121.914 253.5,122.5C 256.96,123.37 260.46,124.037 264,124.5C 265.89,124.785 267.223,125.785 268,127.5C 270.391,126.398 270.891,127.064 269.5,129.5C 270.325,130.386 271.325,130.719 272.5,130.5C 272.52,132.143 271.853,133.476 270.5,134.5C 272.027,136.193 273.36,138.027 274.5,140C 274.167,140.167 273.833,140.333 273.5,140.5C 271.156,138.523 269.156,136.19 267.5,133.5C 265.591,134.348 263.591,134.682 261.5,134.5C 261.52,136.143 260.853,137.476 259.5,138.5C 259.833,139.5 260.5,140.167 261.5,140.5C 264.43,138.822 265.43,139.322 264.5,142C 265.994,144.639 266.661,147.472 266.5,150.5C 268.5,150.5 270.5,150.5 272.5,150.5C 272.609,147.466 273.943,146.466 276.5,147.5C 275.139,149.028 273.972,150.695 273,152.5C 271.817,151.269 270.651,151.269 269.5,152.5C 270.689,153.429 272.022,153.762 273.5,153.5C 273.565,155.696 274.232,157.696 275.5,159.5C 279.514,161.414 283.347,163.414 287,165.5C 287.498,168.817 287.665,172.15 287.5,175.5 Z"/></g>
<g><path style="opacity:1" fill="#cd07a8" d="M 208.5,132.5 C 211.564,132.603 212.564,133.936 211.5,136.5C 209.712,135.717 208.712,134.384 208.5,132.5 Z"/></g>
<g><path style="opacity:1" fill="#c908a7" d="M 169.5,131.5 C 171.199,131.34 172.866,131.506 174.5,132C 172.979,135.017 173.979,136.85 177.5,137.5C 175.51,138.498 173.51,139.498 171.5,140.5C 170.394,138.716 170.394,136.882 171.5,135C 170.571,133.923 169.904,132.756 169.5,131.5 Z"/></g>
<g><path style="opacity:1" fill="#67068c" d="M 218.5,120.5 C 219.5,120.5 220.5,120.5 221.5,120.5C 221.923,123.243 220.756,124.576 218,124.5C 216.596,124.491 215.43,123.991 214.5,123C 215.858,122.066 217.192,121.232 218.5,120.5 Z"/></g>
<g><path style="opacity:1" fill="#cb08a8" d="M 176.5,120.5 C 178.167,120.5 179.833,120.5 181.5,120.5C 181.218,123.91 180.551,127.243 179.5,130.5C 180.98,132.544 180.48,133.878 178,134.5C 175.976,134.2 175.476,133.367 176.5,132C 172.624,129.461 172.624,127.128 176.5,125C 175.241,124.077 173.908,123.243 172.5,122.5C 173.949,121.828 175.282,121.161 176.5,120.5 Z"/></g>
<g><path style="opacity:1" fill="#c908a7" d="M 195.5,116.5 C 196.5,116.5 197.5,116.5 198.5,116.5C 198.178,118.722 198.845,120.556 200.5,122C 199.197,125.044 196.864,126.211 193.5,125.5C 194.167,122.5 194.833,119.5 195.5,116.5 Z"/></g>
<g><path style="opacity:1" fill="#5d128a" d="M 202.5,108.5 C 203.586,108.62 204.253,109.287 204.5,110.5C 204.167,111.167 203.833,111.833 203.5,112.5C 202.571,111.311 202.238,109.978 202.5,108.5 Z"/></g>
<g><path style="opacity:1" fill="#9f6fa5" d="M 432.5,146.5 C 437.099,153.362 440.932,160.695 444,168.5C 472.091,244.17 463.425,315.17 418,381.5C 361.233,452.539 288.067,479.039 198.5,461C 119.947,437.446 69.1133,386.28 46,307.5C 34.7943,262.124 37.1277,217.458 53,173.5C 55.0188,168.129 57.5188,163.129 60.5,158.5C 57.0141,168.145 53.5141,177.812 50,187.5C 41.9921,213.921 38.9921,240.921 41,268.5C 47.7059,337.453 79.2059,391.619 135.5,431C 150.601,439.094 165.935,446.761 181.5,454C 226.829,469.219 272.163,469.219 317.5,454C 330.248,446.453 343.248,439.12 356.5,432C 358.957,430.438 361.624,429.438 364.5,429C 366.618,427.951 368.284,426.451 369.5,424.5C 370.625,422.871 371.959,421.371 373.5,420C 378.179,416.903 382.846,413.903 387.5,411C 389.818,408.403 392.318,405.903 395,403.5C 395.908,400.257 397.908,397.923 401,396.5C 407.364,387.981 413.864,379.647 420.5,371.5C 421.721,370.972 422.887,370.305 424,369.5C 433.539,354.755 441.206,339.088 447,322.5C 466.158,261.763 461.325,203.096 432.5,146.5 Z"/></g>
<g><path style="opacity:1" fill="#89549d" d="M 194.5,417.5 C 230.941,430.489 267.608,430.823 304.5,418.5C 306.012,416.683 308.012,415.683 310.5,415.5C 310.285,417.179 310.952,418.179 312.5,418.5C 311.878,420.335 310.544,421.502 308.5,422C 268.908,435.969 229.574,435.969 190.5,422C 188.456,421.502 187.122,420.335 186.5,418.5C 188.048,418.179 188.715,417.179 188.5,415.5C 190.912,415.244 192.579,416.244 193.5,418.5C 194.107,418.376 194.44,418.043 194.5,417.5 Z"/></g>
<g><path style="opacity:1" fill="#652a8f" d="M 274.5,408.5 C 274.5,411.5 274.5,414.5 274.5,417.5C 263.926,419.193 253.259,419.86 242.5,419.5C 242.402,416.752 243.402,416.086 245.5,417.5C 245.56,418.043 245.893,418.376 246.5,418.5C 247.575,416.189 247.575,413.856 246.5,411.5C 250.833,411.5 255.167,411.5 259.5,411.5C 259.5,413.833 259.5,416.167 259.5,418.5C 260.5,418.5 261.5,418.5 262.5,418.5C 262.5,415.833 262.5,413.167 262.5,410.5C 266.418,409.558 270.418,408.892 274.5,408.5 Z"/></g>
<g><path style="opacity:1" fill="#d7c7e2" d="M 292.5,404.5 C 294.414,407.684 295.08,411.351 294.5,415.5C 294.5,416.5 294.5,417.5 294.5,418.5C 293.5,418.5 292.5,418.5 291.5,418.5C 291.5,416.167 291.5,413.833 291.5,411.5C 291.198,408.941 291.532,406.607 292.5,404.5 Z"/></g>
<g><path style="opacity:1" fill="#773f96" d="M 291.5,411.5 C 291.5,413.833 291.5,416.167 291.5,418.5C 292.5,418.5 293.5,418.5 294.5,418.5C 294.5,417.5 294.5,416.5 294.5,415.5C 298.11,414.297 301.777,413.297 305.5,412.5C 304.85,414.435 304.517,416.435 304.5,418.5C 267.608,430.823 230.941,430.489 194.5,417.5C 194.371,415.784 194.038,414.117 193.5,412.5C 197.099,413.699 200.765,414.699 204.5,415.5C 204.263,416.791 204.596,417.791 205.5,418.5C 207.604,418.799 209.604,418.466 211.5,417.5C 210.311,416.571 208.978,416.238 207.5,416.5C 207.5,415.833 207.5,415.167 207.5,414.5C 212.364,414.679 217.03,415.679 221.5,417.5C 225.404,419.548 227.738,418.548 228.5,414.5C 229.249,415.531 229.915,416.698 230.5,418C 233.592,418.736 236.592,418.569 239.5,417.5C 239.56,418.043 239.893,418.376 240.5,418.5C 241.386,417.675 241.719,416.675 241.5,415.5C 243.483,415.157 244.817,415.824 245.5,417.5C 243.402,416.086 242.402,416.752 242.5,419.5C 253.259,419.86 263.926,419.193 274.5,417.5C 276.693,418.797 279.027,418.797 281.5,417.5C 279.955,416.548 278.288,416.215 276.5,416.5C 276.5,415.167 276.5,413.833 276.5,412.5C 277.833,412.5 279.167,412.5 280.5,412.5C 279.737,413.268 278.737,413.768 277.5,414C 282.303,414.006 286.969,413.173 291.5,411.5 Z"/></g>
<g><path style="opacity:1" fill="#c8b2d7" d="M 207.5,414.5 C 207.5,415.167 207.5,415.833 207.5,416.5C 206.677,413.023 206.177,409.356 206,405.5C 205.501,409.821 205.334,414.154 205.5,418.5C 204.596,417.791 204.263,416.791 204.5,415.5C 204.5,411.833 204.5,408.167 204.5,404.5C 205.5,404.5 206.5,404.5 207.5,404.5C 207.5,407.833 207.5,411.167 207.5,414.5 Z"/></g>
<g><path style="opacity:1" fill="#682e91" d="M 327.5,381.5 C 328.167,381.5 328.5,381.833 328.5,382.5C 328.177,386.226 328.511,389.893 329.5,393.5C 332.606,391.048 335.939,389.048 339.5,387.5C 339.277,389.342 338.943,391.175 338.5,393C 338.833,393.833 339.167,394.667 339.5,395.5C 340.107,395.376 340.44,395.043 340.5,394.5C 341.423,393.697 342.423,393.53 343.5,394C 333.826,401.67 323.159,407.503 311.5,411.5C 311.326,409.139 310.993,406.806 310.5,404.5C 309.178,404.33 308.011,404.663 307,405.5C 306.338,407.813 305.838,410.146 305.5,412.5C 301.777,413.297 298.11,414.297 294.5,415.5C 295.08,411.351 294.414,407.684 292.5,404.5C 301.889,401.253 311.223,397.587 320.5,393.5C 320.185,389.629 320.518,385.962 321.5,382.5C 321.5,386.833 321.5,391.167 321.5,395.5C 323.5,395.5 325.5,395.5 327.5,395.5C 327.5,390.833 327.5,386.167 327.5,381.5 Z"/></g>
<g><path style="opacity:1" fill="#ede6f2" d="M 246.5,411.5 C 247.575,413.856 247.575,416.189 246.5,418.5C 245.893,418.376 245.56,418.043 245.5,417.5C 244.817,415.824 243.483,415.157 241.5,415.5C 241.719,416.675 241.386,417.675 240.5,418.5C 239.893,418.376 239.56,418.043 239.5,417.5C 239.804,413.145 240.804,408.979 242.5,405C 243.449,404.383 244.282,404.549 245,405.5C 245.813,407.436 246.313,409.436 246.5,411.5 Z"/></g>
<g><path style="opacity:1" fill="#e8dded" d="M 311.5,411.5 C 312.301,413.042 312.634,414.708 312.5,416.5C 312.5,417.167 312.5,417.833 312.5,418.5C 310.952,418.179 310.285,417.179 310.5,415.5C 308.012,415.683 306.012,416.683 304.5,418.5C 304.517,416.435 304.85,414.435 305.5,412.5C 305.838,410.146 306.338,407.813 307,405.5C 308.011,404.663 309.178,404.33 310.5,404.5C 310.993,406.806 311.326,409.139 311.5,411.5 Z"/></g>
<g><path style="opacity:1" fill="#f5f2f8" d="M 281.5,406.5 C 279.833,406.5 278.167,406.5 276.5,406.5C 276.232,408.099 276.566,409.432 277.5,410.5C 279.179,410.285 280.179,410.952 280.5,412.5C 279.167,412.5 277.833,412.5 276.5,412.5C 276.5,413.833 276.5,415.167 276.5,416.5C 278.288,416.215 279.955,416.548 281.5,417.5C 279.027,418.797 276.693,418.797 274.5,417.5C 274.5,414.5 274.5,411.5 274.5,408.5C 274.5,407.167 274.5,405.833 274.5,404.5C 277.388,403.99 279.721,404.656 281.5,406.5 Z"/></g>
<g><path style="opacity:1" fill="#ded1e8" d="M 262.5,410.5 C 262.5,413.167 262.5,415.833 262.5,418.5C 261.5,418.5 260.5,418.5 259.5,418.5C 259.5,416.167 259.5,413.833 259.5,411.5C 259.116,409.071 258.449,406.737 257.5,404.5C 259.833,404.5 262.167,404.5 264.5,404.5C 263.833,406.5 263.167,408.5 262.5,410.5 Z"/></g>
<g><path style="opacity:1" fill="#e6dced" d="M 224.5,404.5 C 228.252,404.501 229.252,406.167 227.5,409.5C 226.833,408.833 226.167,408.167 225.5,407.5C 224.167,410.5 224.167,413.5 225.5,416.5C 226.167,415.5 226.833,414.5 227.5,413.5C 228.107,413.624 228.44,413.957 228.5,414.5C 227.738,418.548 225.404,419.548 221.5,417.5C 221.334,413.486 221.501,409.486 222,405.5C 222.671,404.748 223.504,404.414 224.5,404.5 Z"/></g>
<g><path style="opacity:1" fill="#fefefe" d="M 207.5,416.5 C 208.978,416.238 210.311,416.571 211.5,417.5C 209.604,418.466 207.604,418.799 205.5,418.5C 205.334,414.154 205.501,409.821 206,405.5C 206.177,409.356 206.677,413.023 207.5,416.5 Z"/></g>
<g><path style="opacity:1" fill="#e8dfee" d="M 193.5,412.5 C 194.038,414.117 194.371,415.784 194.5,417.5C 194.44,418.043 194.107,418.376 193.5,418.5C 192.579,416.244 190.912,415.244 188.5,415.5C 188.715,417.179 188.048,418.179 186.5,418.5C 186.5,417.833 186.5,417.167 186.5,416.5C 186.5,416.167 186.5,415.833 186.5,415.5C 186.916,412.417 187.583,409.417 188.5,406.5C 189.077,404.348 190.244,404.015 192,405.5C 192.662,407.813 193.162,410.146 193.5,412.5 Z"/></g>
<g><path style="opacity:1" fill="#794197" d="M 158.5,389.5 C 166.924,397.718 176.924,403.385 188.5,406.5C 187.583,409.417 186.916,412.417 186.5,415.5C 177.694,411.847 169.194,407.513 161,402.5C 157.943,400.945 155.776,398.611 154.5,395.5C 161.167,394.833 161.167,394.167 154.5,393.5C 154.5,392.167 154.5,390.833 154.5,389.5C 155.833,389.5 157.167,389.5 158.5,389.5 Z"/></g>
<g><path style="opacity:1" fill="#9771b8" d="M 239.5,382.5 C 241.607,381.532 243.941,381.198 246.5,381.5C 245.047,384.986 244.381,388.653 244.5,392.5C 244.737,393.791 244.404,394.791 243.5,395.5C 242.945,391.003 243.611,386.836 245.5,383C 243.527,382.505 241.527,382.338 239.5,382.5 Z"/></g>
<g><path style="opacity:1" fill="#57198a" d="M 256.5,381.5 C 256.173,386.214 256.507,390.88 257.5,395.5C 258.42,389.054 259.754,389.054 261.5,395.5C 262.386,394.675 262.719,393.675 262.5,392.5C 266.291,392.341 269.958,391.675 273.5,390.5C 273.5,392.167 273.5,393.833 273.5,395.5C 275.924,395.808 278.257,395.474 280.5,394.5C 278.955,393.548 277.288,393.215 275.5,393.5C 275.5,392.167 275.5,390.833 275.5,389.5C 276.833,389.5 278.167,389.5 279.5,389.5C 287.754,387.97 295.754,385.637 303.5,382.5C 302.454,386.779 303.954,389.445 308,390.5C 308.749,391.635 308.583,392.635 307.5,393.5C 306.614,392.675 306.281,391.675 306.5,390.5C 305.5,390.5 304.5,390.5 303.5,390.5C 303.083,395.068 305.083,396.568 309.5,395C 310.097,393.938 310.43,392.772 310.5,391.5C 309.978,389.074 308.645,387.24 306.5,386C 306.833,385.5 307.167,385 307.5,384.5C 309.367,387.229 310.367,386.896 310.5,383.5C 311.268,384.263 311.768,385.263 312,386.5C 314.749,383.977 317.916,382.311 321.5,381.5C 321.5,381.833 321.5,382.167 321.5,382.5C 320.518,385.962 320.185,389.629 320.5,393.5C 311.223,397.587 301.889,401.253 292.5,404.5C 291.532,406.607 291.198,408.941 291.5,411.5C 286.969,413.173 282.303,414.006 277.5,414C 278.737,413.768 279.737,413.268 280.5,412.5C 280.179,410.952 279.179,410.285 277.5,410.5C 277.5,409.5 277.5,408.5 277.5,407.5C 279.099,407.768 280.432,407.434 281.5,406.5C 279.721,404.656 277.388,403.99 274.5,404.5C 274.5,405.833 274.5,407.167 274.5,408.5C 270.418,408.892 266.418,409.558 262.5,410.5C 263.167,408.5 263.833,406.5 264.5,404.5C 262.167,404.5 259.833,404.5 257.5,404.5C 258.449,406.737 259.116,409.071 259.5,411.5C 255.167,411.5 250.833,411.5 246.5,411.5C 246.313,409.436 245.813,407.436 245,405.5C 244.282,404.549 243.449,404.383 242.5,405C 240.804,408.979 239.804,413.145 239.5,417.5C 236.592,418.569 233.592,418.736 230.5,418C 229.915,416.698 229.249,415.531 228.5,414.5C 228.44,413.957 228.107,413.624 227.5,413.5C 226.833,414.5 226.167,415.5 225.5,416.5C 224.167,413.5 224.167,410.5 225.5,407.5C 226.167,408.167 226.833,408.833 227.5,409.5C 229.252,406.167 228.252,404.501 224.5,404.5C 218.994,402.872 213.327,401.372 207.5,400C 202.816,398.648 198.482,396.815 194.5,394.5C 194.416,389.533 193.082,389.2 190.5,393.5C 189.197,390.355 189.197,387.355 190.5,384.5C 190.33,385.822 190.663,386.989 191.5,388C 195.652,390.079 199.986,391.579 204.5,392.5C 204.414,393.496 204.748,394.329 205.5,395C 210.921,396.28 212.921,394.113 211.5,388.5C 214.969,388.547 218.302,389.213 221.5,390.5C 221.216,392.415 221.549,394.081 222.5,395.5C 224.117,394.411 224.95,392.744 225,390.5C 225.549,392.76 226.716,394.426 228.5,395.5C 229.434,394.432 229.768,393.099 229.5,391.5C 231.713,392.605 233.88,392.605 236,391.5C 237.681,393.428 239.514,393.761 241.5,392.5C 241.285,394.179 241.952,395.179 243.5,395.5C 244.404,394.791 244.737,393.791 244.5,392.5C 248.167,392.5 251.833,392.5 255.5,392.5C 255.185,388.629 255.518,384.962 256.5,381.5 Z"/></g>
<g><path style="opacity:1" fill="#8353a6" d="M 242.5,410.5 C 244.465,410.948 244.798,411.948 243.5,413.5C 242.614,412.675 242.281,411.675 242.5,410.5 Z"/></g>
<g><path style="opacity:1" fill="#b497ca" d="M 281.5,406.5 C 280.432,407.434 279.099,407.768 277.5,407.5C 277.5,408.5 277.5,409.5 277.5,410.5C 276.566,409.432 276.232,408.099 276.5,406.5C 278.167,406.5 279.833,406.5 281.5,406.5 Z"/></g>
<g><path style="opacity:1" fill="#bfa8d3" d="M 229.5,391.5 C 229.768,393.099 229.434,394.432 228.5,395.5C 228.666,391.154 228.499,386.821 228,382.5C 227.667,384.833 227.333,387.167 227,389.5C 225.961,388.756 225.461,387.756 225.5,386.5C 226.451,385.081 226.784,383.415 226.5,381.5C 227.5,381.5 228.5,381.5 229.5,381.5C 229.5,384.833 229.5,388.167 229.5,391.5 Z"/></g>
<g><path style="opacity:1" fill="#eee8f3" d="M 343.5,381.5 C 344.363,383.421 345.029,385.421 345.5,387.5C 345.5,388.167 345.5,388.833 345.5,389.5C 346.234,390.708 346.567,392.041 346.5,393.5C 346.5,393.833 346.5,394.167 346.5,394.5C 346.44,395.043 346.107,395.376 345.5,395.5C 344.614,394.675 344.281,393.675 344.5,392.5C 342.517,392.157 341.183,392.824 340.5,394.5C 340.44,395.043 340.107,395.376 339.5,395.5C 339.167,394.667 338.833,393.833 338.5,393C 338.943,391.175 339.277,389.342 339.5,387.5C 339.581,384.487 340.914,382.487 343.5,381.5 Z"/></g>
<g><path style="opacity:1" fill="#8c5faa" d="M 341.5,387.5 C 343.465,387.948 343.798,388.948 342.5,390.5C 341.614,389.675 341.281,388.675 341.5,387.5 Z"/></g>
<g><path style="opacity:1" fill="#f2edf6" d="M 321.5,381.5 C 323.118,385.084 324.118,389.084 324.5,393.5C 324.882,389.084 325.882,385.084 327.5,381.5C 327.5,386.167 327.5,390.833 327.5,395.5C 325.5,395.5 323.5,395.5 321.5,395.5C 321.5,391.167 321.5,386.833 321.5,382.5C 321.5,382.167 321.5,381.833 321.5,381.5 Z"/></g>
<g><path style="opacity:1" fill="#e6dcee" d="M 310.5,383.5 C 310.367,386.896 309.367,387.229 307.5,384.5C 307.167,385 306.833,385.5 306.5,386C 308.645,387.24 309.978,389.074 310.5,391.5C 310.43,392.772 310.097,393.938 309.5,395C 305.083,396.568 303.083,395.068 303.5,390.5C 304.5,390.5 305.5,390.5 306.5,390.5C 306.281,391.675 306.614,392.675 307.5,393.5C 308.583,392.635 308.749,391.635 308,390.5C 303.954,389.445 302.454,386.779 303.5,382.5C 306.216,380.914 308.55,381.247 310.5,383.5 Z"/></g>
<g><path style="opacity:1" fill="#f4f0f8" d="M 280.5,383.5 C 278.833,383.5 277.167,383.5 275.5,383.5C 275.232,385.099 275.566,386.432 276.5,387.5C 278.179,387.285 279.179,387.952 279.5,389.5C 278.167,389.5 276.833,389.5 275.5,389.5C 275.5,390.833 275.5,392.167 275.5,393.5C 277.288,393.215 278.955,393.548 280.5,394.5C 278.257,395.474 275.924,395.808 273.5,395.5C 273.5,393.833 273.5,392.167 273.5,390.5C 273.5,387.5 273.5,384.5 273.5,381.5C 276.388,380.99 278.721,381.656 280.5,383.5 Z"/></g>
<g><path style="opacity:1" fill="#eae3f1" d="M 256.5,381.5 C 259.044,381.104 261.211,381.771 263,383.5C 263.495,386.531 263.329,389.531 262.5,392.5C 262.719,393.675 262.386,394.675 261.5,395.5C 259.754,389.054 258.42,389.054 257.5,395.5C 256.507,390.88 256.173,386.214 256.5,381.5 Z"/></g>
<g><path style="opacity:1" fill="#f9f6fb" d="M 239.5,382.5 C 241.527,382.338 243.527,382.505 245.5,383C 243.611,386.836 242.945,391.003 243.5,395.5C 241.952,395.179 241.285,394.179 241.5,392.5C 241.768,388.917 241.101,385.584 239.5,382.5 Z"/></g>
<g><path style="opacity:1" fill="#f2eef6" d="M 224.5,382.5 C 224.833,383.833 225.167,385.167 225.5,386.5C 225.461,387.756 225.961,388.756 227,389.5C 227.333,387.167 227.667,384.833 228,382.5C 228.499,386.821 228.666,391.154 228.5,395.5C 226.716,394.426 225.549,392.76 225,390.5C 224.95,392.744 224.117,394.411 222.5,395.5C 221.903,390.706 222.57,386.373 224.5,382.5 Z"/></g>
<g><path style="opacity:1" fill="#b99fcf" d="M 224.5,382.5 C 222.57,386.373 221.903,390.706 222.5,395.5C 221.549,394.081 221.216,392.415 221.5,390.5C 221.5,387.5 221.5,384.5 221.5,381.5C 222.791,381.263 223.791,381.596 224.5,382.5 Z"/></g>
<g><path style="opacity:1" fill="#efe9f4" d="M 211.5,388.5 C 212.921,394.113 210.921,396.28 205.5,395C 204.748,394.329 204.414,393.496 204.5,392.5C 204.211,388.894 204.544,385.394 205.5,382C 210.921,380.72 212.921,382.887 211.5,388.5 Z"/></g>
<g><path style="opacity:1" fill="#7b4ca4" d="M 206.5,384.5 C 207.5,384.5 208.5,384.5 209.5,384.5C 209.5,387.5 209.5,390.5 209.5,393.5C 208.5,393.5 207.5,393.5 206.5,393.5C 206.5,390.5 206.5,387.5 206.5,384.5 Z"/></g>
<g><path style="opacity:1" fill="#e7deee" d="M 193.5,381.5 C 194.301,383.042 194.634,384.708 194.5,386.5C 192.801,386.473 191.467,385.806 190.5,384.5C 189.197,387.355 189.197,390.355 190.5,393.5C 193.082,389.2 194.416,389.533 194.5,394.5C 192.33,395.768 190.163,395.768 188,394.5C 187.501,390.848 187.335,387.182 187.5,383.5C 188.99,381.72 190.99,381.054 193.5,381.5 Z"/></g>
<g><path style="opacity:1" fill="#9d78ba" d="M 174.5,382.5 C 175.209,381.596 176.209,381.263 177.5,381.5C 177.5,383.5 177.5,385.5 177.5,387.5C 177.806,390.385 177.473,393.052 176.5,395.5C 177.097,390.706 176.43,386.373 174.5,382.5 Z"/></g>
<g><path style="opacity:1" fill="#f4eff7" d="M 169.5,381.5 C 172.168,382.457 173.668,384.457 174,387.5C 174.494,385.866 174.66,384.199 174.5,382.5C 176.43,386.373 177.097,390.706 176.5,395.5C 174.554,394.965 173.554,393.632 173.5,391.5C 173.013,390.527 172.513,389.527 172,388.5C 171.503,390.81 171.337,393.143 171.5,395.5C 169.564,391.285 168.897,386.619 169.5,381.5 Z"/></g>
<g><path style="opacity:1" fill="#f0eaf4" d="M 158.5,389.5 C 157.167,389.5 155.833,389.5 154.5,389.5C 154.5,390.833 154.5,392.167 154.5,393.5C 161.167,394.167 161.167,394.833 154.5,395.5C 152.57,391.627 151.903,387.294 152.5,382.5C 154.607,381.532 156.941,381.198 159.5,381.5C 159.5,382.5 159.5,383.5 159.5,384.5C 157.833,384.5 156.167,384.5 154.5,384.5C 154.5,385.5 154.5,386.5 154.5,387.5C 156.483,387.157 157.817,387.824 158.5,389.5 Z"/></g>
<g><path style="opacity:1" fill="#4b0084" d="M 222.5,260.5 C 229.411,261.298 230.077,263.631 224.5,267.5C 222.898,266.45 222.065,267.117 222,269.5C 220.978,268.646 220.145,267.646 219.5,266.5C 221.571,265.024 222.571,263.024 222.5,260.5 Z"/></g>
<g><path style="opacity:1" fill="#4d0084" d="M 186.5,249.5 C 187.833,249.5 189.167,249.5 190.5,249.5C 190.778,251.346 190.111,252.68 188.5,253.5C 186.889,252.68 186.222,251.346 186.5,249.5 Z"/></g>
<g><path style="opacity:1" fill="#5c0088" d="M 180.5,246.5 C 183.423,248.27 183.756,250.27 181.5,252.5C 181.709,253.086 182.043,253.586 182.5,254C 179.491,255.028 176.491,255.695 173.5,256C 175.169,254.331 177.169,253.498 179.5,253.5C 179.448,251.097 179.781,248.764 180.5,246.5 Z"/></g>
<g><path style="opacity:1" fill="#440182" d="M 136.5,248.5 C 140.963,253.465 145.63,258.298 150.5,263C 180.964,285.788 214.297,290.954 250.5,278.5C 253.148,288.346 253.981,298.346 253,308.5C 250.447,310.716 248.28,313.216 246.5,316C 247.229,317.992 248.729,318.826 251,318.5C 255.704,317.087 260.537,316.253 265.5,316C 267.916,310.263 270.249,304.429 272.5,298.5C 271.315,287.832 271.482,277.166 273,266.5C 273.5,266 274,265.5 274.5,265C 283.167,264.333 291.833,264.333 300.5,265C 306.929,273.433 314.096,281.266 322,288.5C 330.85,300.674 328.85,310.674 316,318.5C 315.517,319.448 315.351,320.448 315.5,321.5C 319.182,321.665 322.848,321.499 326.5,321C 327.624,320.751 328.624,320.251 329.5,319.5C 334.36,313.108 338.194,306.108 341,298.5C 341.667,297.167 341.667,295.833 341,294.5C 337.416,290.416 334.916,285.749 333.5,280.5C 334,280.167 334.5,279.833 335,279.5C 342.956,283.222 350.456,287.555 357.5,292.5C 349.167,316.679 334.5,336.179 313.5,351C 312.563,351.692 311.897,351.525 311.5,350.5C 312.607,345.919 312.773,341.252 312,336.5C 311.292,335.619 310.458,334.953 309.5,334.5C 302.656,333.181 295.656,333.181 288.5,334.5C 288.624,335.107 288.957,335.44 289.5,335.5C 290.656,342.989 290.822,350.655 290,358.5C 289.5,359 289,359.5 288.5,360C 290.81,360.497 293.143,360.663 295.5,360.5C 281.347,367.56 266.181,370.893 250,370.5C 232.981,370.813 216.814,367.479 201.5,360.5C 201.657,359.127 201.49,357.793 201,356.5C 198.159,358.504 194.993,359.004 191.5,358C 192,357.5 192.5,357 193,356.5C 193.5,349.174 193.666,341.841 193.5,334.5C 190.313,333.194 186.98,333.194 183.5,334.5C 183.624,335.107 183.957,335.44 184.5,335.5C 184.827,340.214 184.493,344.88 183.5,349.5C 153.701,326.74 137.701,296.573 135.5,259C 135.501,255.317 135.835,251.817 136.5,248.5 Z"/></g>
<g><path style="opacity:1" fill="#c206a5" d="M 226.5,245.5 C 230.408,247.95 229.741,249.116 224.5,249C 226.481,249.605 226.815,250.605 225.5,252C 223.444,252.311 221.444,252.811 219.5,253.5C 218.692,253.192 218.025,252.692 217.5,252C 220.423,249.554 223.423,247.387 226.5,245.5 Z"/></g>
<g><path style="opacity:1" fill="#cb07a8" d="M 201.5,247.5 C 204.047,249.29 203.714,250.956 200.5,252.5C 200.167,252 199.833,251.5 199.5,251C 200.429,249.923 201.096,248.756 201.5,247.5 Z"/></g>
<g><path style="opacity:1" fill="#550087" d="M 148.5,239.5 C 150.377,240.659 150.877,242.326 150,244.5C 148.731,243.095 148.231,241.429 148.5,239.5 Z"/></g>
<g><path style="opacity:1" fill="#d007a9" d="M 205.5,240.5 C 206.598,241.601 206.765,242.934 206,244.5C 204.817,245.731 203.651,245.731 202.5,244.5C 203.524,243.148 204.524,241.815 205.5,240.5 Z"/></g>
<g><path style="opacity:1" fill="#540086" d="M 186.5,236.5 C 186.56,235.957 186.893,235.624 187.5,235.5C 188.273,237.813 188.94,240.146 189.5,242.5C 187.104,245.166 184.771,245 182.5,242C 183.665,240.916 184.998,240.083 186.5,239.5C 187.776,238.386 187.776,237.386 186.5,236.5 Z"/></g>
<g><path style="opacity:1" fill="#cb07a8" d="M 196.5,242.5 C 196.5,241.5 196.5,240.5 196.5,239.5C 201.697,239.305 204.03,236.638 203.5,231.5C 204.833,231.5 206.167,231.5 207.5,231.5C 207.628,233.655 207.128,235.655 206,237.5C 203.833,238.333 202.333,239.833 201.5,242C 200.004,242.507 198.837,242.007 198,240.5C 197.722,241.416 197.222,242.082 196.5,242.5 Z"/></g>
<g><path style="opacity:1" fill="#480683" d="M 118.5,216.5 C 122.446,228.398 128.446,239.065 136.5,248.5C 135.835,251.817 135.501,255.317 135.5,259C 137.701,296.573 153.701,326.74 183.5,349.5C 184.493,344.88 184.827,340.214 184.5,335.5C 185.656,342.989 185.822,350.655 185,358.5C 184.5,359 184,359.5 183.5,360C 189.491,360.499 195.491,360.666 201.5,360.5C 216.814,367.479 232.981,370.813 250,370.5C 266.181,370.893 281.347,367.56 295.5,360.5C 296.873,360.657 298.207,360.49 299.5,360C 298.991,357.43 297.991,355.097 296.5,353C 300.833,352.667 305.167,352.333 309.5,352C 310.044,351.283 310.711,350.783 311.5,350.5C 311.897,351.525 312.563,351.692 313.5,351C 334.5,336.179 349.167,316.679 357.5,292.5C 359.677,295.373 360.677,298.706 360.5,302.5C 361.324,306.503 359.824,309.169 356,310.5C 355.28,312.112 355.446,313.612 356.5,315C 367.191,316.144 372.191,311.31 371.5,300.5C 375.237,302.511 378.904,304.511 382.5,306.5C 380.89,312.386 378.723,318.053 376,323.5C 362.815,347.518 344.649,366.851 321.5,381.5C 317.916,382.311 314.749,383.977 312,386.5C 311.768,385.263 311.268,384.263 310.5,383.5C 308.55,381.247 306.216,380.914 303.5,382.5C 295.754,385.637 287.754,387.97 279.5,389.5C 279.179,387.952 278.179,387.285 276.5,387.5C 276.5,386.5 276.5,385.5 276.5,384.5C 278.099,384.768 279.432,384.434 280.5,383.5C 278.721,381.656 276.388,380.99 273.5,381.5C 273.5,384.5 273.5,387.5 273.5,390.5C 269.958,391.675 266.291,392.341 262.5,392.5C 263.329,389.531 263.495,386.531 263,383.5C 261.211,381.771 259.044,381.104 256.5,381.5C 255.518,384.962 255.185,388.629 255.5,392.5C 251.833,392.5 248.167,392.5 244.5,392.5C 244.381,388.653 245.047,384.986 246.5,381.5C 243.941,381.198 241.607,381.532 239.5,382.5C 241.101,385.584 241.768,388.917 241.5,392.5C 239.514,393.761 237.681,393.428 236,391.5C 233.88,392.605 231.713,392.605 229.5,391.5C 229.5,388.167 229.5,384.833 229.5,381.5C 228.5,381.5 227.5,381.5 226.5,381.5C 226.784,383.415 226.451,385.081 225.5,386.5C 225.167,385.167 224.833,383.833 224.5,382.5C 223.791,381.596 222.791,381.263 221.5,381.5C 221.5,384.5 221.5,387.5 221.5,390.5C 218.302,389.213 214.969,388.547 211.5,388.5C 212.921,382.887 210.921,380.72 205.5,382C 204.544,385.394 204.211,388.894 204.5,392.5C 199.986,391.579 195.652,390.079 191.5,388C 190.663,386.989 190.33,385.822 190.5,384.5C 191.467,385.806 192.801,386.473 194.5,386.5C 194.634,384.708 194.301,383.042 193.5,381.5C 148.258,358.353 121.592,321.686 113.5,271.5C 114.58,268.874 114.246,266.374 112.5,264C 112.5,256 112.5,248 112.5,240C 113.994,237.396 114.327,234.729 113.5,232C 113.95,230.715 114.617,229.548 115.5,228.5C 115.301,225.565 115.301,222.732 115.5,220C 117.125,219.147 117.458,218.147 116.5,217C 117.094,216.536 117.761,216.369 118.5,216.5 Z"/></g>
<g><path style="opacity:1" fill="#490883" d="M 258.5,384.5 C 259.586,384.62 260.253,385.287 260.5,386.5C 260.167,387.167 259.833,387.833 259.5,388.5C 258.571,387.311 258.238,385.978 258.5,384.5 Z"/></g>
<g><path style="opacity:1" fill="#ab8dc6" d="M 280.5,383.5 C 279.432,384.434 278.099,384.768 276.5,384.5C 276.5,385.5 276.5,386.5 276.5,387.5C 275.566,386.432 275.232,385.099 275.5,383.5C 277.167,383.5 278.833,383.5 280.5,383.5 Z"/></g>
<g><path style="opacity:1" fill="#faf9fc" d="M 289.5,335.5 C 295.979,334.509 302.646,334.176 309.5,334.5C 310.458,334.953 311.292,335.619 312,336.5C 312.773,341.252 312.607,345.919 311.5,350.5C 310.711,350.783 310.044,351.283 309.5,352C 305.167,352.333 300.833,352.667 296.5,353C 297.991,355.097 298.991,357.43 299.5,360C 298.207,360.49 296.873,360.657 295.5,360.5C 293.143,360.663 290.81,360.497 288.5,360C 289,359.5 289.5,359 290,358.5C 290.822,350.655 290.656,342.989 289.5,335.5 Z"/></g>
<g><path style="opacity:1" fill="#490a86" d="M 297.5,337.5 C 299.265,336.539 301.265,336.205 303.5,336.5C 304.647,340.646 304.814,344.98 304,349.5C 302.301,350.406 300.467,350.739 298.5,350.5C 298.818,345.968 298.485,341.634 297.5,337.5 Z"/></g>
<g><path style="opacity:1" fill="#a07ec0" d="M 303.5,336.5 C 301.265,336.205 299.265,336.539 297.5,337.5C 296.957,337.44 296.624,337.107 296.5,336.5C 298.973,335.203 301.307,335.203 303.5,336.5 Z"/></g>
<g><path style="opacity:1" fill="#f9f7fb" d="M 259.5,334.5 C 258.848,342.334 258.182,350.167 257.5,358C 260.5,358.667 263.5,358.667 266.5,358C 265.818,350.167 265.152,342.334 264.5,334.5C 267.713,334.19 270.713,334.523 273.5,335.5C 273.666,342.841 273.5,350.174 273,357.5C 272.167,358.333 271.333,359.167 270.5,360C 264.833,360.667 259.167,360.667 253.5,360C 252.667,359.167 251.833,358.333 251,357.5C 250.5,350.174 250.334,342.841 250.5,335.5C 253.287,334.523 256.287,334.19 259.5,334.5 Z"/></g>
<g><path style="opacity:1" fill="#f6f3f9" d="M 216.5,333.5 C 222.176,333.334 227.843,333.501 233.5,334C 234.333,334.833 235.167,335.667 236,336.5C 236.667,343.5 236.667,350.5 236,357.5C 235.167,358.333 234.333,359.167 233.5,360C 227.833,360.667 222.167,360.667 216.5,360C 215.667,359.167 214.833,358.333 214,357.5C 213.333,350.5 213.333,343.5 214,336.5C 215.045,335.627 215.878,334.627 216.5,333.5 Z"/></g>
<g><path style="opacity:1" fill="#57218e" d="M 227.5,336.5 C 228.182,343.568 228.849,350.734 229.5,358C 226.901,358.769 224.401,358.602 222,357.5C 221.5,350.842 221.334,344.175 221.5,337.5C 223.265,336.539 225.265,336.205 227.5,336.5 Z"/></g>
<g><path style="opacity:1" fill="#9c79bd" d="M 227.5,336.5 C 225.265,336.205 223.265,336.539 221.5,337.5C 220.957,337.44 220.624,337.107 220.5,336.5C 222.973,335.203 225.307,335.203 227.5,336.5 Z"/></g>
<g><path style="opacity:1" fill="#f9f7fb" d="M 184.5,335.5 C 187.287,334.523 190.287,334.19 193.5,334.5C 193.666,341.841 193.5,349.174 193,356.5C 192.5,357 192,357.5 191.5,358C 194.993,359.004 198.159,358.504 201,356.5C 201.49,357.793 201.657,359.127 201.5,360.5C 195.491,360.666 189.491,360.499 183.5,360C 184,359.5 184.5,359 185,358.5C 185.822,350.655 185.656,342.989 184.5,335.5 Z"/></g>
<g><path style="opacity:1" fill="#ae92c9" d="M 309.5,334.5 C 302.646,334.176 295.979,334.509 289.5,335.5C 288.957,335.44 288.624,335.107 288.5,334.5C 295.656,333.181 302.656,333.181 309.5,334.5 Z"/></g>
<g><path style="opacity:1" fill="#b296cb" d="M 264.5,334.5 C 267.687,333.194 271.02,333.194 274.5,334.5C 274.376,335.107 274.043,335.44 273.5,335.5C 270.713,334.523 267.713,334.19 264.5,334.5 Z"/></g>
<g><path style="opacity:1" fill="#b195ca" d="M 259.5,334.5 C 256.287,334.19 253.287,334.523 250.5,335.5C 249.957,335.44 249.624,335.107 249.5,334.5C 252.98,333.194 256.313,333.194 259.5,334.5 Z"/></g>
<g><path style="opacity:1" fill="#ad90c8" d="M 193.5,334.5 C 190.287,334.19 187.287,334.523 184.5,335.5C 183.957,335.44 183.624,335.107 183.5,334.5C 186.98,333.194 190.313,333.194 193.5,334.5 Z"/></g>
<g><path style="opacity:1" fill="#4c0084" d="M 153.5,228.5 C 155.082,229.876 156.915,230.876 159,231.5C 160.879,229.987 163.046,229.321 165.5,229.5C 165.674,231.861 166.007,234.194 166.5,236.5C 161.979,236.326 161.645,236.993 165.5,238.5C 167.197,237.636 168.363,236.303 169,234.5C 167.775,237.331 168.441,239.664 171,241.5C 172.813,240.391 173.646,241.058 173.5,243.5C 174.873,243.343 176.207,243.51 177.5,244C 176.128,244.631 174.795,245.298 173.5,246C 173.646,247.727 174.313,247.894 175.5,246.5C 176.308,246.808 176.975,247.308 177.5,248C 175.559,249.903 173.226,250.736 170.5,250.5C 169.442,247.587 168.109,244.754 166.5,242C 166.833,241.667 167.167,241.333 167.5,241C 165.129,241.128 162.796,241.295 160.5,241.5C 158.893,241.363 157.559,240.696 156.5,239.5C 154.351,236.144 153.351,232.478 153.5,228.5 Z"/></g>
<g><path style="opacity:1" fill="#c506a6" d="M 214.5,213.5 C 215.675,213.281 216.675,213.614 217.5,214.5C 215.722,216.945 214.389,219.611 213.5,222.5C 211.018,224.344 208.351,225.677 205.5,226.5C 205.775,222.891 207.775,220.891 211.5,220.5C 212.352,218.076 213.352,215.742 214.5,213.5 Z"/></g>
<g><path style="opacity:1" fill="#c606a6" d="M 191.5,230.5 C 191.703,228.956 192.37,227.622 193.5,226.5C 191.922,225.702 190.256,225.202 188.5,225C 191.655,224.019 191.988,222.685 189.5,221C 191.832,221.649 194.166,221.482 196.5,220.5C 197.95,219.15 198.617,217.484 198.5,215.5C 199.675,215.719 200.675,215.386 201.5,214.5C 201,214.167 200.5,213.833 200,213.5C 198.56,214.148 197.06,214.481 195.5,214.5C 195.312,212.897 195.812,211.563 197,210.5C 197.71,211.973 198.876,212.64 200.5,212.5C 201.705,206.696 203.372,206.363 205.5,211.5C 203.997,214.509 202.997,217.675 202.5,221C 202.905,221.945 203.572,222.612 204.5,223C 202.473,224.396 202.14,226.062 203.5,228C 200.734,228.691 200.067,230.191 201.5,232.5C 200.349,233.731 199.183,233.731 198,232.5C 197.689,231.258 198.189,230.258 199.5,229.5C 198.273,228.41 197.44,227.076 197,225.5C 195.621,227.715 193.787,229.381 191.5,230.5 Z"/></g>
<g><path style="opacity:1" fill="#c907a7" d="M 191.5,213.5 C 195.379,214.836 195.379,216.502 191.5,218.5C 190.334,216.833 190.334,215.166 191.5,213.5 Z"/></g>
<g><path style="opacity:1" fill="#bb06a3" d="M 138.5,215.5 C 141.062,212.909 143.395,213.242 145.5,216.5C 144.833,216.833 144.167,217.167 143.5,217.5C 141.823,216.813 140.156,216.146 138.5,215.5 Z"/></g>
<g><path style="opacity:1" fill="#c406a6" d="M 162.5,208.5 C 167.422,208.11 167.756,209.277 163.5,212C 159.973,212.472 156.639,213.138 153.5,214C 155.945,211.133 158.945,209.3 162.5,208.5 Z"/></g>
<g><path style="opacity:1" fill="#7a0991" d="M 119.5,199.5 C 121.219,202.789 123.219,205.956 125.5,209C 124.781,210.41 123.781,210.243 122.5,208.5C 120.629,205.766 119.629,202.766 119.5,199.5 Z"/></g>
<g><path style="opacity:1" fill="#bb06a3" d="M 141.5,202.5 C 144.435,204.447 145.101,207.114 143.5,210.5C 141.061,208.141 140.394,205.474 141.5,202.5 Z"/></g>
<g><path style="opacity:1" fill="#72018f" d="M 285.5,201.5 C 287.759,202.344 288.759,204.011 288.5,206.5C 283.868,206.412 282.868,204.746 285.5,201.5 Z"/></g>
<g><path style="opacity:1" fill="#c707a6" d="M 209.5,200.5 C 211.212,203.824 210.212,205.657 206.5,206C 207.758,204.259 208.758,202.426 209.5,200.5 Z"/></g>
<g><path style="opacity:1" fill="#5a0088" d="M 289.5,200.5 C 291.33,202.496 293.33,204.329 295.5,206C 294.289,207.578 292.955,207.745 291.5,206.5C 289.914,204.827 289.247,202.827 289.5,200.5 Z"/></g>
<g><path style="opacity:1" fill="#511187" d="M 113.5,194.5 C 114.537,201.98 116.203,209.313 118.5,216.5C 117.761,216.369 117.094,216.536 116.5,217C 117.458,218.147 117.125,219.147 115.5,220C 115.301,222.732 115.301,225.565 115.5,228.5C 114.617,229.548 113.95,230.715 113.5,232C 114.327,234.729 113.994,237.396 112.5,240C 112.5,248 112.5,256 112.5,264C 114.246,266.374 114.58,268.874 113.5,271.5C 121.592,321.686 148.258,358.353 193.5,381.5C 190.99,381.054 188.99,381.72 187.5,383.5C 186.681,386.305 186.181,389.305 186,392.5C 183.454,390.325 180.621,388.658 177.5,387.5C 177.5,385.5 177.5,383.5 177.5,381.5C 176.209,381.263 175.209,381.596 174.5,382.5C 174.66,384.199 174.494,385.866 174,387.5C 173.668,384.457 172.168,382.457 169.5,381.5C 137.759,361.175 116.593,332.509 106,295.5C 95.4446,260.08 97.4446,225.414 112,191.5C 112.232,192.737 112.732,193.737 113.5,194.5 Z"/></g>
<g><path style="opacity:1" fill="#5b0788" d="M 130.5,190.5 C 132.057,191.466 133.39,192.8 134.5,194.5C 133.672,195.415 132.672,196.081 131.5,196.5C 130.534,194.604 130.201,192.604 130.5,190.5 Z"/></g>
<g><path style="opacity:1" fill="#890095" d="M 289.5,184.5 C 290.931,184.119 291.764,183.119 292,181.5C 292.667,182.167 293.333,182.833 294,183.5C 294.219,182.062 294.719,180.729 295.5,179.5C 297.384,180.693 297.884,182.359 297,184.5C 295.989,185.337 294.822,185.67 293.5,185.5C 293.884,187.665 293.217,189.332 291.5,190.5C 290.523,188.589 289.857,186.589 289.5,184.5 Z"/></g>
<g><path style="opacity:1" fill="#a3049c" d="M 172.5,181.5 C 174.199,181.34 175.866,181.506 177.5,182C 180.186,185.476 179.853,185.976 176.5,183.5C 174.134,184.984 172.801,184.317 172.5,181.5 Z"/></g>
<g><path style="opacity:1" fill="#5d208c" d="M 113.5,164.5 C 113.842,174.589 113.842,184.589 113.5,194.5C 112.732,193.737 112.232,192.737 112,191.5C 97.4446,225.414 95.4446,260.08 106,295.5C 116.593,332.509 137.759,361.175 169.5,381.5C 168.897,386.619 169.564,391.285 171.5,395.5C 172.167,394.167 172.833,392.833 173.5,391.5C 173.554,393.632 174.554,394.965 176.5,395.5C 177.473,393.052 177.806,390.385 177.5,387.5C 180.621,388.658 183.454,390.325 186,392.5C 186.181,389.305 186.681,386.305 187.5,383.5C 187.335,387.182 187.501,390.848 188,394.5C 190.163,395.768 192.33,395.768 194.5,394.5C 198.482,396.815 202.816,398.648 207.5,400C 213.327,401.372 218.994,402.872 224.5,404.5C 223.504,404.414 222.671,404.748 222,405.5C 221.501,409.486 221.334,413.486 221.5,417.5C 217.03,415.679 212.364,414.679 207.5,414.5C 207.5,411.167 207.5,407.833 207.5,404.5C 206.5,404.5 205.5,404.5 204.5,404.5C 204.5,408.167 204.5,411.833 204.5,415.5C 200.765,414.699 197.099,413.699 193.5,412.5C 193.162,410.146 192.662,407.813 192,405.5C 190.244,404.015 189.077,404.348 188.5,406.5C 176.924,403.385 166.924,397.718 158.5,389.5C 157.817,387.824 156.483,387.157 154.5,387.5C 154.5,386.5 154.5,385.5 154.5,384.5C 156.167,384.5 157.833,384.5 159.5,384.5C 159.5,383.5 159.5,382.5 159.5,381.5C 156.941,381.198 154.607,381.532 152.5,382.5C 152.167,382.5 151.833,382.5 151.5,382.5C 118.806,356.224 98.6393,322.224 91,280.5C 84.2434,238.894 91.7434,200.228 113.5,164.5 Z"/></g>
<g><path style="opacity:1" fill="#a380bd" d="M 173.5,391.5 C 172.833,392.833 172.167,394.167 171.5,395.5C 171.337,393.143 171.503,390.81 172,388.5C 172.513,389.527 173.013,390.527 173.5,391.5 Z"/></g>
<g><path style="opacity:1" fill="#520086" d="M 287.5,175.5 C 290.734,177.678 291.067,180.178 288.5,183C 289.056,183.383 289.389,183.883 289.5,184.5C 288.542,184.953 287.708,185.619 287,186.5C 286.938,182.852 287.105,179.185 287.5,175.5 Z"/></g>
<g><path style="opacity:1" fill="#bf06a4" d="M 274.5,163.5 C 275.097,163.735 275.43,164.235 275.5,165C 274.5,166.5 273.5,168 272.5,169.5C 272.167,169.167 271.833,168.833 271.5,168.5C 272.26,166.64 273.26,164.973 274.5,163.5 Z"/></g>
<g><path style="opacity:1" fill="#b98fb1" d="M 69.5,345.5 C 82.4336,370.295 99.4336,392.128 120.5,411C 177.388,456.821 241.055,469.321 311.5,448.5C 311.5,449.5 311.5,450.5 311.5,451.5C 286.072,459.01 260.072,461.843 233.5,460C 161.676,452.448 107.176,416.615 70,352.5C 69.5034,350.19 69.3367,347.857 69.5,345.5 Z"/></g>
<g><path style="opacity:1" fill="#854f9b" d="M 458.5,189.5 C 470.324,230.973 470.49,272.639 459,314.5C 447.503,357.074 425.336,392.908 392.5,422C 391.167,422.333 389.833,422.667 388.5,423C 326.327,473.632 256.66,486.966 179.5,463C 168.069,459.116 157.402,453.949 147.5,447.5C 150.647,447.737 153.647,448.57 156.5,450C 164.154,455.326 172.487,459.326 181.5,462C 243.727,481.383 302.727,475.049 358.5,443C 363.94,439.291 368.94,435.125 373.5,430.5C 388.111,418.89 401.444,405.89 413.5,391.5C 419.022,387.809 422.855,382.809 425,376.5C 439.484,355.211 449.817,332.211 456,307.5C 457,306.167 458,304.833 459,303.5C 459.26,299.221 460.427,295.221 462.5,291.5C 465.356,271.596 466.189,251.596 465,231.5C 463.154,217.44 460.988,203.44 458.5,189.5 Z"/></g>
</svg>
